<?xml version="1.0" encoding="utf-8"?><svg xmlns="http://www.w3.org/2000/svg" xmlns:xlink="http://www.w3.org/1999/xlink"><symbol viewBox="0 0 18 18" id="logo--img--baseline-arrow_back-24px" xmlns="http://www.w3.org/2000/svg"><path d="M15 8.25H5.872l4.193-4.192L9 3 3 9l6 6 1.057-1.057L5.872 9.75H15v-1.5z"/></symbol><symbol viewBox="0 0 24 24" id="logo--img--baseline-close-24px" xmlns="http://www.w3.org/2000/svg"><path d="M19 6.41L17.59 5 12 10.59 6.41 5 5 6.41 10.59 12 5 17.59 6.41 19 12 13.41 17.59 19 19 17.59 13.41 12 19 6.41z"/></symbol><symbol viewBox="0 0 20 20" id="logo--img--baseline-help-24px" xmlns="http://www.w3.org/2000/svg"><path d="M10.421 2A8.424 8.424 0 0 0 2 10.421a8.424 8.424 0 0 0 8.421 8.421 8.424 8.424 0 0 0 8.421-8.42A8.424 8.424 0 0 0 10.422 2zm.842 14.316H9.58v-1.684h1.684v1.684zm1.743-6.527l-.758.775c-.606.615-.985 1.12-.985 2.383H9.58v-.42c0-.927.379-1.77.985-2.384l1.044-1.06c.312-.304.497-.725.497-1.188a1.69 1.69 0 0 0-1.684-1.684 1.69 1.69 0 0 0-1.684 1.684H7.053a3.367 3.367 0 0 1 3.368-3.369 3.368 3.368 0 0 1 3.369 3.369 2.68 2.68 0 0 1-.784 1.894z"/></symbol><symbol viewBox="0 0 24 16" id="logo--img--burger" xmlns="http://www.w3.org/2000/svg"><path d="M0 16h24v-2.667H0V16zm0-6.667h24V6.667H0v2.666zM0 0v2.667h24V0H0z"/></symbol><symbol viewBox="0 0 58 55" id="logo--img--chanels" xmlns="http://www.w3.org/2000/svg"><path d="M48.327 19.202c0 2.491 2.163 4.51 4.832 4.51 2.67 0 4.832-2.019 4.832-4.51 0-2.143-1.619-3.992-3.865-4.42v-1.894c0-.496-.435-.902-.967-.902H42.481a12.058 12.058 0 0 0-2.827-6.855l1.341-1.263h11.379c.531 1.41 2.186 2.142 3.696 1.646 1.51-.496 2.295-2.04 1.764-3.45C57.302.655 55.647-.078 54.137.418c-.833.27-1.473.88-1.763 1.646H40.597c-.254 0-.508.09-.689.26L38.35 3.778c-5.376-4.825-13.916-4.679-19.085.338-2.199 2.131-3.528 4.916-3.745 7.87H7.403l-3.165-6.63c1.413-.699 1.957-2.322 1.208-3.641C4.696.395 2.969-.112 1.556.576.143 1.264-.4 2.9.348 4.218c.387.688 1.087 1.195 1.897 1.375l3.648 7.667c.157.327.507.53.881.53h8.746c.217 2.931 1.546 5.705 3.732 7.824l-8.165 7.622C5.808 28.503.892 31.896.107 36.813c-.786 4.915 2.85 9.515 8.117 10.248.157.023.314.045.483.057v4.554c0 .497.435.903.966.903h8.879c.531 1.409 2.186 2.142 3.696 1.645 1.51-.495 2.295-2.04 1.764-3.45-.532-1.409-2.187-2.142-3.697-1.646-.821.271-1.473.88-1.763 1.646H10.64v-3.652c5.303-.497 9.18-4.916 8.649-9.866-.363-3.348-2.694-6.235-6.04-7.486l7.44-6.945c4.845 3.563 11.67 3.585 16.55.067l5.363 6.37c-7.405.959-12.563 7.352-11.536 14.252 1.027 6.911 7.876 11.725 15.268 10.767 7.393-.958 12.563-7.351 11.536-14.251-.906-6.066-6.354-10.655-12.913-10.88l-6.269-7.453c2.223-2.13 3.575-4.927 3.793-7.903h9.712v.992c-2.247.428-3.866 2.277-3.866 4.42zm6.765-17.138c.531 0 .966.406.966.902s-.435.902-.966.902c-.532 0-.966-.406-.966-.902s.434-.902.966-.902zm-52.183 0c.532 0 .966.406.966.902s-.434.902-.966.902c-.531 0-.966-.406-.966-.902s.435-.902.966-.902zm18.36 48.706c.532 0 .967.406.967.902 0 .497-.435.903-.966.903-.532 0-.967-.406-.967-.903 0-.496.435-.901.967-.901zM7.742 35.438c0-.992.87-1.804 1.932-1.804 1.063 0 1.933.812 1.933 1.804s-.87 1.804-1.933 1.804c-1.063 0-1.932-.812-1.932-1.804zm1.932 3.608c2.139 0 3.866 1.612 3.866 3.608v1.725a8.169 8.169 0 0 1-7.73 0v-1.725c0-1.996 1.726-3.608 3.864-3.608zm7.731-.902c0 1.748-.688 3.45-1.932 4.758v-.248c0-1.973-1.148-3.788-3.008-4.736 1.473-1.443 1.413-3.72-.133-5.096-1.546-1.375-3.986-1.319-5.46.124-1.425 1.398-1.425 3.586 0 4.984-1.848.947-2.996 2.762-2.996 4.735v.248c-2.826-2.988-2.512-7.554.689-10.18 3.2-2.628 8.093-2.346 10.908.642 1.244 1.308 1.932 3.01 1.932 4.769zm4.832-16.483v-2.188c0-1.646 1.425-2.976 3.189-2.976h2.15l-1.401 3.27a.843.843 0 0 0 .217.969l1.933 1.804c.374.35.99.35 1.365 0l1.933-1.804a.85.85 0 0 0 .217-.97l-1.401-3.27h2.15c1.764 0 3.189 1.331 3.189 2.977v2.188c-4.047 2.728-9.507 2.728-13.541 0zM30.33 8.74l3.455 1.94c-.387 2.209-3.298 4.024-4.784 4.024-2.15-.338-3.95-1.736-4.698-3.653 1.654-.135 4.638-.609 6.027-2.311zm-6.112.496C24.471 6.213 26.005 4.78 29 4.78c2.742 0 4.252 1.207 4.687 3.732L30.462 6.71a1.016 1.016 0 0 0-1.329.305.848.848 0 0 0-.084.18c-.483 1.364-3.129 1.883-4.832 2.04zM29 18.018l.798 1.86-.798.744-.797-.744.797-1.86zm8.697 32.505v-2.188c0-1.646 1.426-2.976 3.19-2.976h2.15l-1.402 3.27a.843.843 0 0 0 .218.969l1.932 1.804c.375.35.991.35 1.366 0l1.932-1.804a.85.85 0 0 0 .218-.97l-1.402-3.27h2.15c1.764 0 3.19 1.331 3.19 2.977v2.188c-4.047 2.728-9.507 2.728-13.541 0zm8.094-12.921l3.454 1.939c-.386 2.21-3.297 4.025-4.783 4.025-2.15-.338-3.95-1.736-4.699-3.653 1.655-.135 4.639-.609 6.028-2.311zm-6.112.485c.253-3.022 1.787-4.454 4.783-4.454 2.742 0 4.252 1.206 4.687 3.732l-3.225-1.804a1.016 1.016 0 0 0-1.33.304.845.845 0 0 0-.084.18c-.483 1.376-3.128 1.895-4.831 2.042zm4.783 8.794l.797 1.86-.797.744-.797-.744.797-1.86zm11.596-5.13c0 2.627-1.027 5.164-2.899 7.137v-.553c0-2.413-1.92-4.442-4.481-4.735 1.51-1.105 2.44-2.762 2.548-4.555 0-5.964-3.684-7.216-6.764-7.216s-6.765 1.252-6.765 7.216c.11 1.793 1.04 3.45 2.55 4.555-2.562.293-4.482 2.322-4.482 4.735v.553c-4.228-4.488-3.757-11.32 1.05-15.266 4.808-3.946 12.128-3.506 16.356.98 1.86 1.974 2.887 4.522 2.887 7.149zm-18.36-21.726v-.553c0-2.413-1.921-4.442-4.482-4.735 1.51-1.105 2.44-2.762 2.549-4.555 0-5.964-3.684-7.216-6.765-7.216-3.08 0-6.764 1.252-6.764 7.216.109 1.793 1.039 3.45 2.549 4.555-2.561.293-4.482 2.322-4.482 4.735v.553c-4.24-4.488-3.78-11.32 1.027-15.277 4.808-3.958 12.128-3.53 16.367.958 3.866 4.093 3.866 10.226 0 14.319zm18.36-.823c0 1.5-1.292 2.706-2.899 2.706-1.606 0-2.899-1.207-2.899-2.706 0-1.5 1.293-2.706 2.9-2.706 1.606 0 2.898 1.217 2.898 2.706z"/></symbol><symbol viewBox="0 0 80 80" id="logo--img--cloud_1" xmlns="http://www.w3.org/2000/svg"><circle cx="40" cy="40" r="40"/><g clip-path="url(#afclip0)"><path d="M62.957 46.443c-.267 0-.53.11-.718.298-.189.19-.298.451-.298.718 0 .267.11.53.298.718.189.189.451.298.718.298.267 0 .53-.109.718-.298.189-.189.298-.45.298-.718 0-.267-.109-.53-.298-.718a1.023 1.023 0 0 0-.718-.298z"/><path d="M60.782 24.419H31.306a5.302 5.302 0 0 0-3.932-1.743h-6.03a5.32 5.32 0 0 0-5.314 5.314v29.594a5.32 5.32 0 0 0 5.314 5.314h6.03a5.302 5.302 0 0 0 3.932-1.743h29.475a3.195 3.195 0 0 0 3.191-3.191v-6.442a1.016 1.016 0 0 0-2.032 0v6.442c0 .64-.52 1.16-1.16 1.16H32.46a5.292 5.292 0 0 0 .228-1.54V27.99a5.29 5.29 0 0 0-.228-1.54h28.32c.64 0 1.16.52 1.16 1.16v15.7a1.016 1.016 0 0 0 2.032 0v-15.7a3.195 3.195 0 0 0-3.191-3.191zM27.375 60.867h-6.03a3.286 3.286 0 0 1-3.282-3.283V27.99a3.286 3.286 0 0 1 3.282-3.283h6.03a3.286 3.286 0 0 1 3.282 3.283v29.594a3.286 3.286 0 0 1-3.282 3.282zm14.097-45.641c3.062-3.063 8.045-3.063 11.108 0a1.013 1.013 0 0 0 1.436 0 1.017 1.017 0 0 0 0-1.437c-3.855-3.854-10.126-3.854-13.98 0a1.016 1.016 0 0 0 1.436 1.437z"/><path d="M50.028 18.795a1.015 1.015 0 0 0 .718-1.734 5.264 5.264 0 0 0-7.437 0 1.015 1.015 0 1 0 1.437 1.436 3.23 3.23 0 0 1 4.563 0c.199.2.459.298.719.298zm-3.718 1.368a1.02 1.02 0 0 0 0 1.437 1.02 1.02 0 0 0 1.435 0 1.021 1.021 0 0 0 0-1.437 1.023 1.023 0 0 0-.718-.298c-.267 0-.529.109-.718.298zm13.396 23.149V29.498c0-.56-.456-1.016-1.017-1.016H35.938c-.56 0-1.015.455-1.015 1.016v13.814c0 .56.455 1.015 1.016 1.015H58.69c.56 0 1.016-.454 1.016-1.015zm-10.104-10.51a2.29 2.29 0 0 1-2.288 2.288 2.29 2.29 0 0 1-2.288-2.288 2.29 2.29 0 0 1 2.288-2.288 2.29 2.29 0 0 1 2.288 2.288zm-2.288 4.32a6.197 6.197 0 0 1 6.105 5.174H41.208c.486-2.932 3.038-5.175 6.106-5.175zm-10.36-6.608h6.698a4.302 4.302 0 0 0 .488 5.214 8.243 8.243 0 0 0-4.983 6.568h-2.204V30.514zm20.72 11.782H55.47a8.242 8.242 0 0 0-4.983-6.568 4.302 4.302 0 0 0 .488-5.214h6.699v11.782zM40.078 46.74a1.026 1.026 0 0 0-.719-.297 1.02 1.02 0 0 0-1.016 1.016 1.02 1.02 0 0 0 1.016 1.016c.268 0 .529-.109.719-.298a1.02 1.02 0 0 0 .297-.718c0-.267-.108-.53-.297-.718zm5.203 0a1.026 1.026 0 0 0-.718-.297 1.02 1.02 0 0 0-1.016 1.016 1.019 1.019 0 0 0 1.016 1.016c.267 0 .528-.109.718-.298a1.02 1.02 0 0 0 .297-.718c0-.267-.108-.53-.297-.718zm5.207 0a1.024 1.024 0 0 0-.718-.297 1.018 1.018 0 0 0-.718 1.734c.188.189.45.298.718.298.266 0 .529-.109.718-.298.188-.189.297-.45.297-.718 0-.267-.108-.53-.297-.718zm5.207 0a1.024 1.024 0 0 0-.718-.297c-.267 0-.53.11-.718.298a1.023 1.023 0 0 0-.298.718c0 .267.109.53.297.718.19.189.452.298.719.298.267 0 .529-.109.718-.298.188-.189.297-.45.297-.718 0-.267-.108-.53-.297-.718zm-15.617 4.47a1.026 1.026 0 0 0-.719-.297c-.267 0-.529.109-.718.298a1.02 1.02 0 0 0 .718 1.734c.268 0 .53-.109.719-.298a1.02 1.02 0 0 0 .297-.718c0-.267-.108-.53-.297-.718zm5.203 0a1.026 1.026 0 0 0-.718-.297 1.02 1.02 0 0 0-1.016 1.016 1.018 1.018 0 0 0 1.016 1.016c.267 0 .53-.109.718-.298a1.02 1.02 0 0 0 .297-.718c0-.267-.108-.53-.297-.718zm5.207 0a1.024 1.024 0 0 0-.718-.297 1.02 1.02 0 0 0-.718 1.734c.188.189.45.298.718.298.266 0 .529-.109.718-.298a1.017 1.017 0 0 0 0-1.436zm5.207 0a1.024 1.024 0 0 0-.718-.297 1.018 1.018 0 0 0-1.016 1.016c0 .267.109.529.297.718.19.189.452.298.719.298.267 0 .529-.109.718-.298.188-.189.297-.45.297-.718 0-.267-.108-.53-.297-.718zM39.36 55.382c-.268 0-.53.108-.719.297a1.02 1.02 0 0 0 .718 1.734c.268 0 .53-.108.719-.297.189-.19.297-.451.297-.718 0-.268-.108-.53-.297-.719a1.024 1.024 0 0 0-.719-.297zm5.203 0a1.02 1.02 0 0 0-1.016 1.016 1.018 1.018 0 0 0 1.016 1.015c.267 0 .528-.108.718-.297.189-.19.297-.451.297-.718 0-.268-.108-.53-.297-.719a1.024 1.024 0 0 0-.718-.297zm5.207 0a1.02 1.02 0 0 0-.718 1.734c.188.188.45.297.718.297.266 0 .529-.108.718-.297.188-.19.297-.451.297-.718 0-.268-.108-.53-.297-.719a1.023 1.023 0 0 0-.718-.297zm5.207 0c-.267 0-.53.108-.718.297-.19.19-.298.451-.298.718 0 .268.109.53.297.718.19.19.452.298.719.298.267 0 .529-.108.718-.297.188-.19.297-.451.297-.718 0-.268-.108-.53-.297-.719a1.023 1.023 0 0 0-.718-.297z"/></g><defs><clipPath id="afclip0"><path transform="translate(14 11)" d="M0 0h52v52H0z"/></clipPath></defs></symbol><symbol viewBox="0 0 80 80" id="logo--img--cloud_2" xmlns="http://www.w3.org/2000/svg"><circle cx="40" cy="40" r="40"/><path d="M65.167 18c.46 0 .833-.373.833-.833v-.834A3.333 3.333 0 0 0 62.667 13H39.333A3.333 3.333 0 0 0 36 16.333v13.334h-3.333V25.5a2.5 2.5 0 0 0-2.5-2.5h-8.334a2.5 2.5 0 0 0-2.5 2.5v4.167H18.5a2.5 2.5 0 0 0-2.5 2.5v25a2.5 2.5 0 0 0 2.5 2.5h3.333v.833a2.5 2.5 0 0 0 5 0v-.833H36v2.5c0 .46.373.833.833.833h23.334c.46 0 .833-.373.833-.833v-2.5h2.5a2.5 2.5 0 0 0 2.5-2.5v-25a2.5 2.5 0 0 0-2.5-2.5H61V18h4.167zm-.834-1.667H61a1.667 1.667 0 0 1 3.333 0zM21 25.5c0-.46.373-.833.833-.833h8.334c.46 0 .833.373.833.833v28.333c0 .46-.373.834-.833.834h-8.334a.833.833 0 0 1-.833-.834V25.5zM18.5 58a.833.833 0 0 1-.833-.833v-25c0-.46.373-.834.833-.834h.833v22.5a2.5 2.5 0 0 0 2.5 2.5h3.334V58H18.5zm6.667 2.5a.833.833 0 0 1-1.667 0v-.833h1.667v.833zm34.166.833H37.667v-6.666h21.666v6.666zm5-29.166v25c0 .46-.373.833-.833.833H61v-5H36v5h-9.167v-1.667h3.334a2.5 2.5 0 0 0 2.5-2.5v-22.5H36v3.334h25v-3.334h2.5c.46 0 .833.373.833.834zm-5-1.667V33H37.667V16.333c0-.92.746-1.666 1.666-1.666h20.448a3.34 3.34 0 0 0-.172.345l-.015.031a3.288 3.288 0 0 0-.2.693 3.273 3.273 0 0 0-.06.597V30.5z"/><path d="M34.332 37.166V40.5c0 .46.373.833.833.833h26.667c.46 0 .833-.373.833-.833v-3.334a.833.833 0 0 0-.833-.833H35.165a.833.833 0 0 0-.833.833zm1.667.834h25v1.666h-25V38zm3.333 5h3.333v1.667h-3.333V43zm5 0h3.333v1.667h-3.333V43zm5.004 0h3.333v1.667h-3.333V43zm4.996 0h3.333v1.667h-3.333V43zm-15 3.334h3.333v1.667h-3.333v-1.667zm5 0h3.333v1.667h-3.333v-1.667zm5.004 0h3.333v1.667h-3.333v-1.667zm4.996 0h3.333v1.667h-3.333v-1.667zm-15 3.333h3.333v1.667h-3.333v-1.667zm5 0h3.333v1.667h-3.333v-1.667zm5.004 0h3.333v1.667h-3.333v-1.667zm4.996 0h3.333v1.667h-3.333v-1.667zm-10-33.334h8.333V18h-8.333v-1.667zm-2.5 3.334h15.833v1.667H41.832v-1.667zM39.332 23h18.333v1.667H39.332V23zm0 3.333h10V28h-10v-1.667zm11.668 0h3.333V28H51v-1.667zm-9.168 3.333h15.833v1.667H41.832v-1.667z"/></symbol><symbol viewBox="0 0 80 80" id="logo--img--cloud_3" xmlns="http://www.w3.org/2000/svg"><circle cx="40" cy="40" r="40"/><path d="M54.22 32.007c-.583 0-1.056.473-1.056 1.056v6.601c0 6.983-5.681 12.664-12.664 12.664s-12.665-5.68-12.665-12.664v-6.6a1.057 1.057 0 0 0-2.112 0v6.6c0 7.793 6.064 14.196 13.72 14.74v5.483H33.98a1.057 1.057 0 0 0 0 2.113h13.04a1.056 1.056 0 1 0 0-2.113h-5.464v-5.484c7.657-.543 13.72-6.946 13.72-14.739v-6.6a1.055 1.055 0 0 0-1.056-1.057z"/><path d="M41.202 17h-1.408c-4.83 0-8.759 3.93-8.759 8.759v14.61c0 4.829 3.93 8.758 8.759 8.758h1.408c4.83 0 8.758-3.93 8.758-8.759v-14.61c0-4.829-3.929-8.758-8.758-8.758zm6.645 11.5h-3.83a1.056 1.056 0 1 0 0 2.114h3.83v2.94h-3.83a1.056 1.056 0 1 0 0 2.113h3.83v2.941h-3.83a1.056 1.056 0 1 0 0 2.113h3.821a6.654 6.654 0 0 1-6.636 6.293h-1.408a6.654 6.654 0 0 1-6.636-6.293h3.82a1.056 1.056 0 1 0 0-2.113h-3.83v-2.94h3.83a1.056 1.056 0 1 0 0-2.114h-3.83v-2.94h3.83a1.056 1.056 0 1 0 0-2.113h-3.83v-2.742a6.654 6.654 0 0 1 3.767-5.99v2.987a1.056 1.056 0 1 0 2.113 0v-3.598c.251-.029 2.689-.029 2.94 0v3.598a1.056 1.056 0 1 0 2.113 0V19.77a6.654 6.654 0 0 1 3.766 5.99v2.74z"/></symbol><symbol viewBox="0 0 80 80" id="logo--img--cloud_4" xmlns="http://www.w3.org/2000/svg"><circle cx="40" cy="40" r="40"/><g clip-path="url(#aiclip0)"><path d="M54.197 34.223l-1.056 1.154 4.804 4.404a5.496 5.496 0 0 1 1.776 4.043V63h1.566V43.824a7.068 7.068 0 0 0-2.285-5.198l-4.805-4.403z"/><path d="M47.97 16H27.605a3.922 3.922 0 0 0-3.916 3.917v39.166A3.922 3.922 0 0 0 27.604 63h19.584v-1.401a17.81 17.81 0 0 1 3.001-9.914.783.783 0 0 0-.098-.989l-5.483-5.483a2.541 2.541 0 0 1 .186-3.76 2.638 2.638 0 0 1 3.507.27l7.733 7.732 1.107-1.107-5.253-5.256V19.917A3.922 3.922 0 0 0 47.97 16zm2.35 25.526l-.911-.912a4.216 4.216 0 0 0-5.612-.371 4.108 4.108 0 0 0-.297 6.078l5.037 5.037a19.369 19.369 0 0 0-2.91 10.075H27.603a2.35 2.35 0 0 1-2.35-2.35v-2.35h19.583v-1.566H25.255v-32.9h25.067v19.259zm0-20.826H25.255v-.783a2.35 2.35 0 0 1 2.35-2.35h20.367a2.35 2.35 0 0 1 2.35 2.35v.783z"/><path d="M28.39 30.1h3.134c.866 0 1.567-.702 1.567-1.567V25.4c0-.866-.701-1.567-1.567-1.567h-3.133c-.865 0-1.567.701-1.567 1.567v3.133c0 .865.701 1.567 1.567 1.567zm0-4.7h3.134v3.133h-3.133V25.4zm7.829 4.7h3.133c.866 0 1.567-.702 1.567-1.567V25.4c0-.866-.701-1.567-1.567-1.567H36.22c-.865 0-1.567.701-1.567 1.567v3.133c0 .865.702 1.567 1.567 1.567zm0-4.7h3.133v3.133H36.22V25.4zm7.836 4.7h3.133c.866 0 1.567-.702 1.567-1.567V25.4c0-.866-.701-1.567-1.567-1.567h-3.133c-.865 0-1.567.701-1.567 1.567v3.133c0 .865.702 1.567 1.567 1.567zm0-4.7h3.133v3.133h-3.133V25.4zM28.39 37.934h3.134c.866 0 1.567-.702 1.567-1.567v-3.133c0-.866-.701-1.567-1.567-1.567h-3.133c-.865 0-1.567.701-1.567 1.567v3.133c0 .865.701 1.567 1.567 1.567zm0-4.7h3.134v3.133h-3.133v-3.133zm0 12.533h3.134c.866 0 1.567-.702 1.567-1.567v-3.133c0-.866-.701-1.567-1.567-1.567h-3.133c-.865 0-1.567.701-1.567 1.567V44.2c0 .865.701 1.567 1.567 1.567zm0-4.7h3.134V44.2h-3.133v-3.133zm7.829-3.133h3.133c.866 0 1.567-.702 1.567-1.567v-3.133c0-.866-.701-1.567-1.567-1.567H36.22c-.865 0-1.567.701-1.567 1.567v3.133c0 .865.702 1.567 1.567 1.567zm0-4.7h3.133v3.133H36.22v-3.133zm7.836 4.7h3.133c.866 0 1.567-.702 1.567-1.567v-3.133c0-.866-.701-1.567-1.567-1.567h-3.133c-.865 0-1.567.701-1.567 1.567v3.133c0 .865.702 1.567 1.567 1.567zm0-4.7h3.133v3.133h-3.133v-3.133zm-7.836 12.533h3.133c.866 0 1.567-.702 1.567-1.567v-3.133c0-.866-.701-1.567-1.567-1.567H36.22c-.865 0-1.567.701-1.567 1.567V44.2c0 .865.702 1.567 1.567 1.567zm0-4.7h3.133V44.2H36.22v-3.133zM28.39 53.6h3.134c.866 0 1.567-.702 1.567-1.567V48.9c0-.866-.701-1.567-1.567-1.567h-3.133c-.865 0-1.567.701-1.567 1.567v3.133c0 .865.701 1.567 1.567 1.567zm0-4.7h3.134v3.133h-3.133V48.9zm7.829 4.7h3.133c.866 0 1.567-.702 1.567-1.567V48.9c0-.866-.701-1.567-1.567-1.567H36.22c-.865 0-1.567.701-1.567 1.567v3.133c0 .865.702 1.567 1.567 1.567zm0-4.7h3.133v3.133H36.22V48.9zm.785 9.4h1.567v1.567h-1.567V58.3z"/></g><defs><clipPath id="aiclip0"><path transform="translate(19 16)" d="M0 0h47v47H0z"/></clipPath></defs></symbol><symbol viewBox="0 0 80 80" id="logo--img--cloud_5" xmlns="http://www.w3.org/2000/svg"><circle cx="40" cy="40" r="40"/><path d="M63.516 17.79H16.484A3.487 3.487 0 0 0 13 21.274v31.355a3.487 3.487 0 0 0 3.484 3.484H32.16v4.355h-6.096v1.742h27.87v-1.742H47.84v-4.355h15.677A3.487 3.487 0 0 0 67 52.629V21.274a3.487 3.487 0 0 0-3.484-3.484zm-17.42 42.678H33.904v-4.355h12.194v4.355zm19.162-7.84c0 .962-.781 1.743-1.742 1.743H16.484c-.96 0-1.742-.781-1.742-1.742V21.274c0-.96.781-1.742 1.742-1.742h47.032c.96 0 1.742.781 1.742 1.742v31.355z"/><path d="M16.484 52.628h47.032V21.273H16.485v31.355zm1.742-29.612h43.549v27.87H18.226v-27.87z"/><path d="M20.84 26.5a.871.871 0 1 0 0-1.741.871.871 0 0 0 0 1.742zm2.61 0a.871.871 0 1 0-.001-1.741.871.871 0 0 0 0 1.742zm2.612 0a.871.871 0 1 0 0-1.741.871.871 0 0 0 0 1.742zm-6.093 12.194h12.193V28.242H19.97v10.452zm1.742-8.71h8.71v6.968h-8.71v-6.968zm12.191 8.71h12.194V28.242H33.902v10.452zm1.742-8.71h8.71v6.968h-8.71v-6.968zm12.196 8.71h12.193V28.242H47.84v10.452zm1.742-8.71h8.71v6.968h-8.71v-6.968zm-3.484 10.451h-26.13v1.742h26.13v-1.742zm0 3.484h-26.13v1.742h26.13v-1.742zm0 3.483h-26.13v1.742h26.13v-1.742zm13.936-6.967H48.71v1.742h11.323v-1.742zm0 3.484H48.71v1.742h11.323v-1.742zm0 3.483H48.71v1.742h11.323v-1.742z"/></symbol><symbol viewBox="0 0 16 16" id="logo--img--enter" xmlns="http://www.w3.org/2000/svg"><path d="M5.5 8h-5V6h5V4l3 3-3 3V8zm10-8v13l-6 3v-3h-6V9h1v3h5V3l4-2h-9v4h-1V0h12z"/></symbol><symbol viewBox="0 0 38 32" id="logo--img--hd" xmlns="http://www.w3.org/2000/svg"><path d="M35.964 2.766H2.035v20.357h33.929V2.766zM3.59 8.393L6.984 5a.679.679 0 0 1 .96.96L4.55 9.353a.679.679 0 0 1-.96-.96zm1.638 3.674l-.678.678a.679.679 0 0 1-.96-.96l.679-.678a.679.679 0 0 1 .96.96zm6.107-6.107l-4.75 4.75a.679.679 0 0 1-.96-.96L10.377 5a.679.679 0 0 1 .96.96z"/><path d="M.679 25.159H37.32a.679.679 0 0 0 .679-.678V1.409A.679.679 0 0 0 37.32.73H.68a.679.679 0 0 0-.68.68v23.07c0 .375.304.679.679.679zm0-23.071c0-.375.303-.679.678-.679h35.286c.375 0 .678.304.678.679v21.714a.679.679 0 0 1-.678.678H1.357a.679.679 0 0 1-.678-.678V2.088zm29.857 25.785v-1.357h-1.358v1.357H8.821v-1.357H7.464v1.357a3.397 3.397 0 0 0-3.393 3.393h1.357c0-1.125.912-2.036 2.036-2.036h23.072c1.124 0 2.035.911 2.035 2.036h1.357a3.397 3.397 0 0 0-3.392-3.393z"/><path d="M10.23 7.23h20.462v13.885H10.23z"/><path d="M16.71 14.318h-4.424v4.256h-1.582V8.802h1.582v4.116h4.424V8.802h1.582v9.772H16.71v-4.256zm3.988-5.516h3.458c.626 0 1.19.103 1.694.308.513.206.947.514 1.302.924.364.402.644.91.84 1.526.196.607.294 1.316.294 2.128s-.098 1.526-.294 2.142c-.196.607-.476 1.116-.84 1.526a3.389 3.389 0 0 1-1.302.91 4.452 4.452 0 0 1-1.694.308h-3.458V8.802zm3.458 8.372c.728 0 1.316-.228 1.764-.686.448-.457.672-1.13.672-2.016v-1.568c0-.886-.224-1.558-.672-2.016-.448-.457-1.036-.686-1.764-.686H22.28v6.972h1.876z"/></symbol><symbol viewBox="0 0 56 56" id="logo--img--internet" xmlns="http://www.w3.org/2000/svg"><path d="M49 46.586A28.11 28.11 0 0 0 56 28c0-7.362-2.897-14.12-7.603-19.19C43.448 3.62 36.569.241 28.966 0h-2.173C19.19.241 12.31 3.62 7.363 8.81 2.896 13.88 0 20.638 0 28a28.11 28.11 0 0 0 7 18.586h.12c4.949 5.552 11.949 9.052 19.915 9.293h2.05c7.845-.12 14.845-3.741 19.914-9.293-.12 0-.12 0 0 0-.12 0-.12 0 0 0zM1.931 28.966h11.586c.12 4.103.966 8.086 2.293 11.827-2.776.966-5.43 2.293-7.844 3.983C4.466 40.43 2.172 35 1.93 28.966zM8.569 10.62c2.414 1.569 4.948 2.776 7.603 3.741-1.69 3.983-2.534 8.207-2.655 12.673H1.931c.241-6.276 2.655-11.949 6.638-16.414zm45.5 16.413H42.483c-.12-4.344-.966-8.69-2.655-12.672 2.655-.965 5.19-2.172 7.603-3.741 3.983 4.465 6.397 10.138 6.638 16.413zM27.034 14.484c-2.775-.12-5.551-.483-8.206-1.207 1.93-3.983 4.707-7.604 8.207-10.62v11.827zm0 1.93v10.622H15.449c.121-4.225.966-8.328 2.535-12.07a39.305 39.305 0 0 0 9.052 1.449zm1.931 0c3.018-.12 6.035-.603 8.932-1.327 1.569 3.742 2.413 7.845 2.534 12.07H28.966V16.413zm0-1.93V2.534c3.5 3.018 6.276 6.638 8.207 10.621-2.655.845-5.43 1.207-8.206 1.328zm10.018-1.81c-1.81-3.863-4.466-7.483-7.604-10.5 5.673.724 10.742 3.258 14.604 7.12-2.173 1.328-4.466 2.535-7 3.38zm-21.966 0c-2.414-.845-4.827-1.932-7-3.38 3.862-3.741 9.052-6.276 14.604-7.12-3.259 3.017-5.793 6.517-7.604 10.5zm-1.569 16.292h11.587v9.656c-3.138.12-6.276.603-9.294 1.448-1.448-3.5-2.172-7.241-2.293-11.104zm11.587 11.587v12.913c-3.742-3.258-6.638-7.12-8.57-11.465a34.432 34.432 0 0 1 8.57-1.448zm1.93 12.913V40.552c2.897.12 5.794.483 8.57 1.327-1.932 4.466-4.828 8.328-8.57 11.587zm0-14.844v-9.656h11.587c-.121 3.863-.845 7.604-2.293 11.225-3.018-.966-6.156-1.449-9.294-1.57zm13.518-9.656h11.586c-.241 6.035-2.414 11.466-6.035 15.81-2.413-1.689-5.069-3.016-7.844-3.982 1.327-3.741 2.172-7.724 2.293-11.828zm-33.07 17.26a29.058 29.058 0 0 1 7.242-3.622c1.931 4.225 4.586 8.087 7.966 11.345a26.361 26.361 0 0 1-15.207-7.724zm21.966 7.603c3.38-3.259 6.155-7.121 7.966-11.345a40.579 40.579 0 0 1 7.241 3.62c-3.983 4.225-9.293 7-15.207 7.725z"/></symbol><symbol viewBox="0 0 80 80" id="logo--img--internet_advantages_2" xmlns="http://www.w3.org/2000/svg"><circle cx="40" cy="40" r="40"/><path d="M15.12 21.047a3.292 3.292 0 0 0-4.491 1.203 3.292 3.292 0 0 0 1.203 4.492 3.29 3.29 0 0 0 3.848-.409l4.231 2.444a23.175 23.175 0 0 0 0 21.447l-4.23 2.442a3.287 3.287 0 0 0-5.053 4.084 3.293 3.293 0 0 0 4.493 1.204 3.294 3.294 0 0 0 1.57-3.537l4.23-2.442c.015.03.031.06.05.089A23.155 23.155 0 0 0 39.495 62.7v4.882a3.294 3.294 0 0 0-2.278 3.128A3.292 3.292 0 0 0 40.506 74a3.292 3.292 0 0 0 3.289-3.289c0-1.46-.958-2.7-2.278-3.128V62.7A23.153 23.153 0 0 0 60.04 52.064a.997.997 0 0 0 .05-.089l4.23 2.442a3.294 3.294 0 0 0 1.57 3.537 3.293 3.293 0 0 0 4.493-1.204 3.286 3.286 0 0 0-1.204-4.492 3.294 3.294 0 0 0-3.848.408L61.1 50.224a23.167 23.167 0 0 0 2.321-14.5 1.01 1.01 0 1 0-1.994.327c.131.805.216 1.622.255 2.438h-6.199c-.08-2.916-.502-5.737-1.239-8.347 1.704-.39 3.238-.854 4.547-1.384a21.987 21.987 0 0 1 1.374 2.792 1.011 1.011 0 0 0 1.875-.759 23.38 23.38 0 0 0-.935-2.017l4.227-2.44a3.291 3.291 0 0 0 3.847.409 3.293 3.293 0 0 0 1.204-4.493 3.293 3.293 0 0 0-4.492-1.203 3.286 3.286 0 0 0-1.572 3.537l-4.222 2.438a23.176 23.176 0 0 0-18.58-10.723v-4.882a3.293 3.293 0 0 0 2.277-3.128A3.292 3.292 0 0 0 40.507 5a3.292 3.292 0 0 0-3.29 3.289c0 1.46.959 2.7 2.279 3.128V16.3A23.156 23.156 0 0 0 20.97 26.937a.919.919 0 0 0-.05.088l-4.229-2.441a3.287 3.287 0 0 0-1.571-3.537zm51.783 1.75c.978-.565 2.147.342 1.857 1.425-.291 1.086-1.758 1.28-2.321.306a1.266 1.266 0 0 1 .464-1.73zm-54.65 1.425a1.267 1.267 0 1 1 2.32.306c-.562.974-2.03.781-2.32-.306zM58.78 50.238c-1.306-.529-2.837-.991-4.536-1.38.737-2.61 1.16-5.43 1.24-8.347h6.2c-.184 3.526-1.167 6.783-2.904 9.727zM22.23 28.762c1.307.529 2.837.992 4.536 1.38-.736 2.61-1.16 5.431-1.239 8.347h-6.2c.176-3.497 1.16-6.77 2.903-9.727zm10.187-8.86c-2.282 2.262-3.95 5.27-5.036 8.312-1.494-.335-2.846-.73-4.017-1.177a21.239 21.239 0 0 1 9.053-7.135zm7.077-1.54v11.142c-3.632-.049-7.089-.36-10.108-.89 1.74-4.694 5.187-9.622 10.108-10.251zm-13.966 22.15c.08 2.916.502 5.737 1.239 8.347-1.699.388-3.23.85-4.537 1.38-1.755-2.978-2.719-6.194-2.902-9.727h6.2zm13.967 20.126c-4.926-.63-8.37-5.558-10.108-10.25 3.02-.531 6.476-.842 10.108-.89v11.14zm-7.077-1.54c-3.78-1.58-6.78-4.035-9.053-7.134 1.17-.447 2.523-.842 4.017-1.177 1.087 3.041 2.755 6.051 5.036 8.312zm25.23-7.134a21.31 21.31 0 0 1-9.054 7.135c2.281-2.26 3.95-5.269 5.037-8.312 1.493.335 2.846.73 4.017 1.177zm-16.131 8.674v-11.14c3.631.048 7.09.359 10.109.89-1.74 4.693-5.187 9.621-10.11 10.25zm-2.022-13.162c-3.851.05-7.53.392-10.743.977-.71-2.47-1.122-5.155-1.202-7.941h11.945v6.964zM27.55 38.489c.08-2.786.491-5.471 1.202-7.941 3.213.584 6.892.927 10.743.978v6.963H27.55zm13.967-20.126c4.925.63 8.37 5.558 10.109 10.25-3.02.531-6.477.842-10.11.891V18.363zM14.11 56.203a1.266 1.266 0 1 1-1.27-2.195 1.266 1.266 0 0 1 1.27 2.195zm26.396 15.775a1.268 1.268 0 0 1-1.267-1.267 1.268 1.268 0 0 1 2.534 0c0 .699-.569 1.267-1.267 1.267zm27.032-18.14c.973 0 1.581 1.06 1.096 1.901-.564.977-2.03.78-2.322-.305a1.268 1.268 0 0 1 1.226-1.596zM53.462 38.49h-4.106a1.01 1.01 0 1 0 0 2.022h4.106c-.08 2.785-.49 5.47-1.202 7.941-3.213-.584-6.891-.926-10.743-.977V40.51h3.121a1.01 1.01 0 1 0 0-2.022h-3.12v-6.963c3.85-.051 7.529-.394 10.742-.979.711 2.471 1.122 5.156 1.202 7.942zm.169-10.275c-1.085-3.036-2.757-6.059-5.054-8.329a21.147 21.147 0 0 1 9.081 7.148c-1.173.45-2.53.845-4.027 1.18zM40.506 7.02a1.269 1.269 0 0 1 0 2.534 1.268 1.268 0 0 1 0-2.534z"/><path d="M18.065 19.292c4.31-4.784 9.897-8.012 16.16-9.337a1.011 1.011 0 1 0-.419-1.978c-6.683 1.414-12.645 4.859-17.243 9.961a1.01 1.01 0 1 0 1.502 1.354zm44.883 0a1.01 1.01 0 1 0 1.502-1.354c-4.598-5.102-10.56-8.547-17.244-9.96a1.011 1.011 0 0 0-.419 1.978c6.263 1.324 11.851 4.552 16.161 9.336zm6.935 30.816a1.01 1.01 0 0 0 1.274-.65 32.486 32.486 0 0 0-.001-19.92 1.011 1.011 0 0 0-1.923.625 30.455 30.455 0 0 1 .001 18.672c-.172.53.119 1.1.65 1.273zm-6.935 9.6c-4.31 4.784-9.898 8.012-16.16 9.337a1.012 1.012 0 0 0 .419 1.977c6.682-1.413 12.645-4.858 17.243-9.96a1.01 1.01 0 1 0-1.502-1.354zm-44.884 0a1.01 1.01 0 1 0-1.501 1.353c4.598 5.103 10.56 8.548 17.243 9.961a1.01 1.01 0 1 0 .418-1.978c-6.261-1.324-11.85-4.553-16.16-9.336zm-8.208-30.17a32.49 32.49 0 0 0-.001 19.92 1.01 1.01 0 1 0 1.922-.624 30.456 30.456 0 0 1 .002-18.671 1.011 1.011 0 0 0-1.923-.625z"/></symbol><symbol viewBox="0 0 80 80" id="logo--img--internet_advantages_3" xmlns="http://www.w3.org/2000/svg"><circle cx="40" cy="40" r="40"/><g clip-path="url(#aoclip0)"><path d="M64.266 23.2a3.737 3.737 0 0 0-3.733 3.733 3.737 3.737 0 0 0 3.733 3.734A3.737 3.737 0 0 0 68 26.933a3.737 3.737 0 0 0-3.734-3.733zm0 5.6a1.869 1.869 0 0 1-1.866-1.867c0-1.029.837-1.866 1.866-1.866 1.03 0 1.867.837 1.867 1.866 0 1.03-.837 1.867-1.867 1.867zM15.733 54A3.737 3.737 0 0 0 12 57.733a3.737 3.737 0 0 0 3.733 3.734 3.737 3.737 0 0 0 3.734-3.734A3.737 3.737 0 0 0 15.733 54zm0 5.6a1.869 1.869 0 0 1-1.866-1.867 1.867 1.867 0 0 1 3.733 0c0 1.03-.837 1.867-1.867 1.867z"/><path d="M62.457 24.38l-8.052-3.887a.932.932 0 1 0-.81 1.68l8.051 3.888a.931.931 0 0 0 1.246-.435.934.934 0 0 0-.435-1.246zM54 60.533a3.737 3.737 0 0 0-3.733 3.733A3.737 3.737 0 0 0 54 68a3.737 3.737 0 0 0 3.733-3.733A3.737 3.737 0 0 0 54 60.533zm0 5.6a1.869 1.869 0 0 1-1.867-1.867 1.868 1.868 0 0 1 3.734.001c0 1.03-.838 1.866-1.867 1.866z"/><path d="M52.19 61.713l-8.051-3.887a.933.933 0 0 0-.811 1.681l8.052 3.887a.932.932 0 0 0 1.246-.435.934.934 0 0 0-.435-1.246zM40 37.2a3.737 3.737 0 0 0-3.733 3.733A3.737 3.737 0 0 0 40 44.668a3.737 3.737 0 0 0 3.733-3.733A3.737 3.737 0 0 0 40 37.2zm0 5.6a1.869 1.869 0 0 1-1.867-1.866c0-1.03.837-1.867 1.867-1.867s1.867.837 1.867 1.867A1.869 1.869 0 0 1 40 42.8z"/><path d="M38.359 38.484l-6.185-4.82a.934.934 0 0 0-1.148 1.473l6.185 4.82a.932.932 0 0 0 1.31-.163.934.934 0 0 0-.162-1.31zM56.8 36.267c-5.66 0-10.267 4.606-10.267 10.266 0 5.661 4.606 10.267 10.267 10.267 5.66 0 10.267-4.606 10.267-10.267 0-5.66-4.606-10.266-10.267-10.266zm0 18.666c-4.632 0-8.4-3.768-8.4-8.4 0-4.632 3.768-8.4 8.4-8.4 4.632 0 8.4 3.768 8.4 8.4 0 4.632-3.768 8.4-8.4 8.4z"/><path d="M56.8 40a3.737 3.737 0 0 0-3.734 3.733 3.737 3.737 0 0 0 3.734 3.734 3.737 3.737 0 0 0 3.733-3.734A3.737 3.737 0 0 0 56.8 40zm0 5.6a1.869 1.869 0 0 1-1.867-1.867 1.868 1.868 0 0 1 3.733 0c0 1.03-.837 1.867-1.866 1.867zm2.708 3.733h-5.415c-1.595 0-2.893 1.263-2.893 2.814v2.46c0 .333.177.641.466.809A10.266 10.266 0 0 0 56.8 56.8c1.795 0 3.57-.48 5.135-1.384a.933.933 0 0 0 .465-.808v-2.46c0-1.552-1.297-2.815-2.892-2.815zm1.025 4.718a8.463 8.463 0 0 1-7.466 0v-1.903c0-.523.46-.948 1.026-.948h5.415c.565 0 1.025.425 1.025.948v1.903zM34.4 47.467c-5.661 0-10.267 4.606-10.267 10.267C24.133 63.394 28.739 68 34.4 68c5.66 0 10.266-4.606 10.266-10.267 0-5.66-4.606-10.266-10.266-10.266zm0 18.666c-4.633 0-8.4-3.767-8.4-8.4 0-4.632 3.767-8.4 8.4-8.4 4.632 0 8.4 3.768 8.4 8.4 0 4.633-3.768 8.4-8.4 8.4z"/><path d="M34.4 51.2a3.737 3.737 0 0 0-3.733 3.733 3.737 3.737 0 0 0 3.733 3.734 3.737 3.737 0 0 0 3.734-3.733A3.737 3.737 0 0 0 34.4 51.2zm0 5.6a1.869 1.869 0 0 1-1.866-1.866c0-1.03.837-1.867 1.866-1.867 1.03 0 1.867.837 1.867 1.867A1.868 1.868 0 0 1 34.4 56.8zm2.707 3.733h-5.415c-1.595 0-2.892 1.263-2.892 2.814v2.46c0 .334.177.642.465.809A10.266 10.266 0 0 0 34.4 68c1.795 0 3.57-.479 5.134-1.384a.932.932 0 0 0 .466-.808v-2.46c0-1.552-1.297-2.815-2.893-2.815zm1.026 4.718a8.463 8.463 0 0 1-7.467 0v-1.903c0-.523.46-.948 1.026-.948h5.415c.566 0 1.026.425 1.026.948v1.903zM22.267 24.133C16.606 24.133 12 28.739 12 34.4c0 5.66 4.606 10.266 10.267 10.266 5.66 0 10.266-4.606 10.266-10.266 0-5.661-4.606-10.267-10.266-10.267zm0 18.667c-4.632 0-8.4-3.768-8.4-8.4 0-4.633 3.768-8.4 8.4-8.4 4.632 0 8.4 3.767 8.4 8.4 0 4.632-3.768 8.4-8.4 8.4z"/><path d="M22.267 27.867a3.737 3.737 0 0 0-3.734 3.733 3.737 3.737 0 0 0 3.733 3.734A3.737 3.737 0 0 0 26 31.6a3.737 3.737 0 0 0-3.733-3.733zm0 5.6a1.869 1.869 0 0 1-1.867-1.866c0-1.03.837-1.867 1.867-1.867 1.029 0 1.866.837 1.866 1.866 0 1.03-.837 1.867-1.866 1.867zm2.708 3.733h-5.416c-1.595 0-2.892 1.263-2.892 2.814v2.46c0 .334.177.642.466.809a10.266 10.266 0 0 0 5.134 1.384c1.795 0 3.57-.479 5.134-1.384a.933.933 0 0 0 .466-.808v-2.46c0-1.552-1.297-2.815-2.892-2.815zM26 41.918a8.463 8.463 0 0 1-7.466 0v-1.903c0-.523.46-.948 1.025-.948h5.415c.566 0 1.026.425 1.026.948v1.903zM44.667 12C39.007 12 34.4 16.606 34.4 22.267c0 5.66 4.606 10.266 10.267 10.266 5.66 0 10.267-4.606 10.267-10.266C54.934 16.606 50.328 12 44.667 12zm0 18.667c-4.632 0-8.4-3.768-8.4-8.4 0-4.632 3.768-8.4 8.4-8.4 4.632 0 8.4 3.768 8.4 8.4 0 4.632-3.768 8.4-8.4 8.4z"/><path d="M44.667 15.733a3.737 3.737 0 0 0-3.733 3.734 3.737 3.737 0 0 0 3.733 3.733 3.737 3.737 0 0 0 3.733-3.733 3.737 3.737 0 0 0-3.733-3.734zm0 5.6a1.869 1.869 0 0 1-1.867-1.866c0-1.03.837-1.867 1.867-1.867s1.867.837 1.867 1.867-.838 1.866-1.867 1.866zm2.707 3.733h-5.415c-1.595 0-2.893 1.263-2.893 2.814v2.46c0 .334.178.642.466.809a10.266 10.266 0 0 0 5.134 1.384c1.795 0 3.57-.479 5.135-1.384a.933.933 0 0 0 .465-.807v-2.46c0-1.553-1.297-2.816-2.892-2.816zm1.026 4.718a8.463 8.463 0 0 1-7.467 0v-1.903c0-.522.46-.948 1.026-.948h5.415c.565 0 1.026.426 1.026.948v1.903zm-12.357-8.125a.935.935 0 0 0-1.316-.102l-6.468 5.535a.933.933 0 1 0 1.214 1.417l6.468-5.534a.933.933 0 0 0 .102-1.316z"/><path d="M56.613 36.64l-5.6-7.466a.933.933 0 0 0-1.493 1.119l5.6 7.467a.933.933 0 0 0 1.493-1.12zm-7.66 12.98a.933.933 0 0 0-1.307-.187l-5.213 3.91a.932.932 0 1 0 1.12 1.492l5.213-3.91a.932.932 0 0 0 .187-1.306zM25.066 56.8h-6.533a.933.933 0 1 0 0 1.866h6.533a.933.933 0 1 0 0-1.866zM22.267 12a3.737 3.737 0 0 0-3.734 3.733 3.737 3.737 0 0 0 3.733 3.734A3.737 3.737 0 0 0 26 15.733 3.737 3.737 0 0 0 22.267 12zm0 5.6a1.869 1.869 0 0 1-1.867-1.867 1.868 1.868 0 0 1 3.733 0c0 1.03-.837 1.867-1.866 1.867z"/><path d="M22.266 17.6a.933.933 0 0 0-.933.933v6.533a.933.933 0 1 0 1.867 0v-6.533a.933.933 0 0 0-.934-.933z"/></g><defs><clipPath id="aoclip0"><path transform="translate(12 12)" d="M0 0h56v56H0z"/></clipPath></defs></symbol><symbol viewBox="0 0 80 80" id="logo--img--internet_advantages_4" xmlns="http://www.w3.org/2000/svg"><circle cx="40" cy="40" r="40"/><g clip-path="url(#apclip0)"><path d="M41.712 38.29a.957.957 0 1 0-1.354 1.352.957.957 0 0 0 1.354-1.353zm12.18-12.182a4.783 4.783 0 0 0-6.768 0 4.792 4.792 0 0 0 0 6.768 4.792 4.792 0 0 0 6.768 0 4.783 4.783 0 0 0 0-6.767zm-1.354 5.414a2.875 2.875 0 0 1-4.06 0 2.875 2.875 0 0 1 0-4.06 2.87 2.87 0 0 1 4.06 0 2.87 2.87 0 0 1 0 4.06z"/><path d="M64.72 15.28a.954.954 0 0 0-.711-.28c-.217.008-5.369.216-11.493 2.38-4.908 1.733-8.999 4.214-12.159 7.374a36.41 36.41 0 0 0-2.056 2.24c-3.125-1.84-5.628-1.263-7.211-.416-3.645 1.95-5.9 7.246-5.9 11.034a.957.957 0 0 0 1.633.677c1.922-1.922 4.293-1.802 5.068-1.7l.335.335a33.525 33.525 0 0 0-1.58 4.648c-.142.55-.094 1.13.115 1.662a9.063 9.063 0 0 0-2.584 1.822c-2.464 2.464-2.964 8.468-2.984 8.722a.957.957 0 0 0 1.029 1.03c.254-.02 6.258-.52 8.722-2.984a9.064 9.064 0 0 0 1.822-2.584 2.702 2.702 0 0 0 1.663.115 33.66 33.66 0 0 0 4.648-1.58l.335.335c.101.774.222 3.145-1.7 5.067a.957.957 0 0 0 .676 1.633c3.788 0 9.084-2.255 11.035-5.9.847-1.582 1.423-4.086-.416-7.21.78-.66 1.53-1.349 2.24-2.057 3.16-3.16 5.64-7.251 7.373-12.158C64.785 21.36 64.992 16.208 65 15.99a.957.957 0 0 0-.28-.71zM27.33 35.553c.594-2.877 2.32-6.034 4.663-7.288 1.566-.838 3.277-.756 5.097.24a38.695 38.695 0 0 0-4.021 6.555c-.015-.009-.187-.226-.507-.298-.131-.03-2.664-.574-5.233.791zm6.26 14.917c-1.316 1.316-4.402 2.01-6.354 2.294.284-1.952.978-5.038 2.294-6.354.737-.737 1.591-1.296 2.45-1.61l3.22 3.22c-.314.859-.873 1.713-1.61 2.45zm4.363-2.969c-.276.07-.597-.033-.836-.271a17008.23 17008.23 0 0 0-1.874-1.875l-2.472-2.471c-.239-.24-.343-.56-.272-.837a31.091 31.091 0 0 1 1.195-3.655l7.914 7.914a31.037 31.037 0 0 1-3.654 1.195zm13.782.506c-1.254 2.343-4.41 4.07-7.288 4.664.917-1.726 1.12-3.923.785-5.256-.078-.31-.28-.465-.291-.483a38.709 38.709 0 0 0 6.554-4.021c.996 1.82 1.078 3.53.24 5.096zm2.158-9.718a34.726 34.726 0 0 1-2.76 2.476 36.767 36.767 0 0 1-7.63 4.73l-8.997-8.998a36.763 36.763 0 0 1 4.729-7.63 34.735 34.735 0 0 1 2.476-2.76c2.835-2.835 6.494-5.091 10.879-6.716l8.019 8.02c-1.624 4.384-3.88 8.043-6.716 10.878zm7.404-12.897l-6.689-6.69a43.03 43.03 0 0 1 8.398-1.707 43.035 43.035 0 0 1-1.709 8.397z"/><path d="M39.004 54.53a.957.957 0 0 0-1.353 0l-2.707 2.708a.957.957 0 0 0 1.354 1.353l2.706-2.707a.957.957 0 0 0 0-1.354zM25.47 40.996a.957.957 0 0 0-1.353 0l-2.708 2.706a.957.957 0 1 0 1.354 1.354l2.707-2.706a.957.957 0 0 0 0-1.354zm6.767 14.888a.957.957 0 0 0-1.354 0l-6.482 6.482a.957.957 0 1 0 1.353 1.353l6.483-6.482a.957.957 0 0 0 0-1.353zm-7.657 0a.957.957 0 0 0-1.353 0l-6.483 6.482a.957.957 0 1 0 1.354 1.353l6.483-6.482a.957.957 0 0 0 0-1.353zm-.464-8.121a.957.957 0 0 0-1.354 0l-6.482 6.483a.957.957 0 0 0 1.354 1.353l6.482-6.483a.957.957 0 0 0 0-1.353zm21.655-13.535a.957.957 0 0 0-1.353 0l-1.353 1.354a.957.957 0 0 0 1.353 1.353l1.353-1.353a.957.957 0 0 0 0-1.354z"/></g><defs><clipPath id="apclip0"><path transform="translate(16 15)" d="M0 0h49v49H0z"/></clipPath></defs></symbol><symbol viewBox="0 0 80 80" id="logo--img--internet_advantages_5" xmlns="http://www.w3.org/2000/svg"><circle cx="40" cy="40" r="40"/><path d="M40.313 71c-.476 0-.913-.234-1.163-.64L21.288 42.03A21.3 21.3 0 0 1 18 30.65C18 18.719 27.875 9 40 9s22 9.718 22 21.65a21.44 21.44 0 0 1-3.1 11.097L41.487 70.348c-.25.406-.687.652-1.162.652h-.013zM40 11.682c-10.625 0-19.275 8.512-19.275 18.969 0 3.506 1 6.95 2.9 9.964L40.3 67.051l16.25-26.694a18.652 18.652 0 0 0 2.725-9.706C59.263 20.194 50.625 11.68 40 11.68z"/><path d="M40 45.08c-3.937 0-7.637-1.512-10.4-4.243-2.75-2.72-4.262-6.336-4.262-10.174 0-7.959 6.575-14.43 14.662-14.43 8.088 0 14.663 6.459 14.663 14.418 0 3.813-1.5 7.418-4.225 10.149-2.763 2.755-6.463 4.28-10.438 4.28zm0-26.546c-6.787 0-12.312 5.437-12.312 12.117 0 6.68 5.525 12.117 12.312 12.117 6.775 0 12.288-5.437 12.288-12.117 0-6.68-5.513-12.117-12.288-12.117z"/><path d="M35.225 23.332v14.737h-1.95V23.332h1.95zm3.375.184c.938-.147 2.15-.283 3.713-.283 1.913 0 3.313.443 4.2 1.23.8.702 1.313 1.772 1.313 3.076 0 1.34-.4 2.386-1.15 3.15-1.05 1.07-2.688 1.623-4.575 1.623-.575 0-1.113-.025-1.55-.135v5.904h-1.938V23.516h-.012zm1.938 7.098c.425.111.95.148 1.6.148 2.338 0 3.75-1.132 3.75-3.125 0-1.968-1.425-2.903-3.537-2.903-.85 0-1.488.062-1.825.148v5.732h.012z"/></symbol><symbol viewBox="0 0 60 60" id="logo--img--internet_marketing" xmlns="http://www.w3.org/2000/svg"><path d="M57 3H3a3 3 0 0 0-3 3v38a3 3 0 0 0 3 3h23v4h-8a3 3 0 0 0-3 3v2a1 1 0 0 0 1 1h28a1 1 0 0 0 1-1v-2a3 3 0 0 0-3-3h-7v-4h22a3 3 0 0 0 3-3V6a3 3 0 0 0-3-3zM42 53a1 1 0 0 1 1 1v1H17v-1a1 1 0 0 1 1-1h24zm-14-2v-4h5v4h-5zm30-7a1 1 0 0 1-1 1H3a1 1 0 0 1-1-1v-3h56v3zm0-5H2V11.083h56V39zm0-29.917H2V6a1 1 0 0 1 1-1h54a1 1 0 0 1 1 1v3.083z"/><path d="M5 15h2.219l2.8 13.2A1 1 0 0 0 11 29h12a1 1 0 0 0 .98-.8l2-10A1 1 0 0 0 25 17H9.78l-.81-3.242A1 1 0 0 0 8 13H5a1 1 0 0 0 0 2zm18.78 4l-1.599 8H11.819l-1.6-8H23.78zM13 30a3 3 0 1 0 0 6 3 3 0 0 0 0-6zm0 4a1 1 0 1 1 0-2 1 1 0 0 1 0 2zm9-4a3 3 0 1 0 0 6 3 3 0 0 0 0-6zm0 4a1 1 0 1 1 0-2 1 1 0 0 1 0 2zm9-16h18a1 1 0 0 0 0-2H31a1 1 0 1 0 0 2zm22 0h2a1 1 0 0 0 0-2h-2a1 1 0 1 0 0 2zm-22 4h18a1 1 0 0 0 0-2H31a1 1 0 1 0 0 2zm22 0h2a1 1 0 0 0 0-2h-2a1 1 0 1 0 0 2zm-22 4h18a1 1 0 0 0 0-2H31a1 1 0 0 0 0 2zm22 0h2a1 1 0 0 0 0-2h-2a1 1 0 0 0 0 2zm-22 4h18a1 1 0 0 0 0-2H31a1 1 0 1 0 0 2zm22 0h2a1 1 0 0 0 0-2h-2a1 1 0 1 0 0 2z"/></symbol><symbol viewBox="0 0 56 53" id="logo--img--internet_marketing_icon_1" xmlns="http://www.w3.org/2000/svg"><path d="M52.267.111H3.733C1.668.111 0 1.742 0 3.761v34.666c0 2.019 1.668 3.65 3.733 3.65h14.934v4.56h-3.734c-1.551 0-2.8 1.22-2.8 2.737 0 1.517 1.249 2.737 2.8 2.737h26.134c1.551 0 2.8-1.22 2.8-2.736 0-1.517-1.249-2.737-2.8-2.737h-3.734v-4.562h14.934c2.065 0 3.733-1.63 3.733-3.649V3.76C56 1.742 54.332.111 52.267.111zM3.733 1.936h48.534c1.026 0 1.866.82 1.866 1.824v31.018H1.867V3.76c0-1.003.84-1.824 1.866-1.824zM42 49.374c0 .502-.42.913-.933.913H14.933a.926.926 0 0 1-.933-.913c0-.501.42-.912.933-.912h26.134c.513 0 .933.41.933.912zm-6.533-2.736H20.533v-4.562h14.934v4.562zm16.8-6.386H3.733c-1.026 0-1.866-.821-1.866-1.825v-1.824h52.266v1.824c0 1.004-.84 1.825-1.866 1.825z"/><path d="M29.61 4.49a.663.663 0 0 0-.536-.261.697.697 0 0 0-.537.262L25.34 8.824a.639.639 0 0 0-.128.376v20.88c0 1.323 1.097 2.395 2.45 2.395h2.8c1.353 0 2.45-1.072 2.45-2.395V9.2a.639.639 0 0 0-.128-.376L29.61 4.491zm-1.75 9.17a.645.645 0 0 0-.653.638v12.236h-.653V9.942h3.115v16.58h-1.144V14.298a.663.663 0 0 0-.665-.639zm3.104-3.718h.653v16.58h-.653V9.942zm-1.879-3.98l1.984 2.702H27.09l1.995-2.702zm2.532 24.118c0 .616-.513 1.118-1.143 1.118h-2.8c-.63 0-1.144-.502-1.144-1.118v-2.269h5.087v2.27z"/><path d="M28.502 11.606l-.035-.126a.626.626 0 0 0-.14-.217.363.363 0 0 0-.105-.08.37.37 0 0 0-.117-.056c-.035-.012-.081-.035-.128-.035a.968.968 0 0 0-.257 0 1.534 1.534 0 0 0-.116.035.555.555 0 0 0-.117.057c-.035.023-.07.045-.105.08a.372.372 0 0 0-.082.102.371.371 0 0 0-.058.114 1.78 1.78 0 0 0-.035.126c-.012.045-.012.08-.012.125 0 .171.07.33.187.456a.68.68 0 0 0 .467.183c.046 0 .081 0 .128-.012.047-.011.082-.023.128-.034a.64.64 0 0 0 .222-.137.355.355 0 0 0 .082-.102.353.353 0 0 0 .058-.114c.012-.035.023-.08.035-.126.012-.045.012-.08.012-.125 0-.035-.012-.08-.012-.114zM17.489 15.21h.023l1.995-.08c1.167-.01 2.112-.935 2.112-2.075 0-1.14-.957-2.075-2.123-2.075h-4.457a.803.803 0 0 1-.817-.799c0-.216.082-.41.245-.558a.788.788 0 0 1 .548-.228h3.921c1.458 0 2.636-1.152 2.636-2.578 0-1.425-1.178-2.577-2.636-2.577h-4.434a.645.645 0 0 0-.653.639c0 .353.291.638.653.638h4.434c.735 0 1.33.582 1.33 1.3 0 .719-.595 1.3-1.33 1.3h-3.897a2.077 2.077 0 0 0-1.493.593 2.01 2.01 0 0 0-.63 1.471c0 1.14.956 2.076 2.123 2.076h4.457c.455 0 .816.353.816.798a.803.803 0 0 1-.817.798h-.023l-1.995.08c-1.236.012-2.228.992-2.228 2.201v.091c-2.847.32-5.064 2.692-5.064 5.554v5.131c0 3.08 2.567 5.588 5.717 5.588 3.15 0 5.717-2.509 5.717-5.588v-5.13c0-2.862-2.217-5.234-5.064-5.554v-.102c0-.502.42-.913.934-.913zm-5.997 6.557c0-2.155 1.633-3.945 3.757-4.264v5.222h-3.757v-.958zM20.3 26.9c0 2.372-1.971 4.31-4.41 4.31-2.426 0-4.41-1.927-4.41-4.31v-2.885h8.82V26.9zm0-5.132v.958h-3.756v-5.223c2.135.32 3.756 2.11 3.756 4.265zM11.375 5.106c.011.034.035.08.058.114.024.035.047.069.082.103a.363.363 0 0 0 .105.08c.035.023.07.045.117.057.034.011.081.023.128.034a.702.702 0 0 0 .595-.171.343.343 0 0 0 .081-.103.342.342 0 0 0 .059-.114 1.78 1.78 0 0 0 .035-.125c.011-.046.011-.08.011-.126 0-.045 0-.08-.011-.125-.012-.046-.024-.08-.035-.114a.627.627 0 0 0-.14-.217.68.68 0 0 0-.467-.182.702.702 0 0 0-.466.182.358.358 0 0 0-.082.103.342.342 0 0 0-.059.114c-.011.034-.034.08-.034.114-.012.046-.012.08-.012.125 0 .046 0 .08.011.126a.155.155 0 0 0 .024.125zm31.022 8.768a4.097 4.097 0 0 0 1.318-3.26c-.07-1.506-.852-2.259-1.482-2.863-.676-.65-1.085-1.038-.7-2.326.175-.582-.07-.89-.221-1.015-.199-.16-.549-.297-1.109-.023-.723.353-1.82 1.38-2.671 2.509-.782 1.037-1.692 2.577-1.622 4.082.058 1.129.537 2.155 1.342 2.885a3.063 3.063 0 0 0-.63 1.859c0 .445.093.855.256 1.243v12.51c0 1.528 1.272 2.76 2.824 2.76 1.563 0 2.823-1.244 2.823-2.76V17.363a3.088 3.088 0 0 0-.128-3.49zm-1.715 3.467c-.024.012-.035.023-.059.023-.011 0-.023.011-.023.011-.012.012-.035.012-.047.023-.011.012-.023.012-.046.023-.012 0-.024.011-.035.011-.012.012-.035.012-.059.023-.011 0-.023.012-.023.012-.023.011-.035.011-.058.022-.012 0-.012 0-.024.012-.023.011-.046.011-.07.011h-.023c-.023.012-.058.012-.082.023h-.676c-.035 0-.059-.011-.094-.023-.011 0-.023-.011-.035-.011-.023 0-.035-.012-.058-.012-.012 0-.035-.011-.047-.011-.011 0-.023-.011-.035-.011-.746-.251-1.283-.947-1.283-1.745 0-.593.292-1.118.735-1.46.012-.011.035-.023.047-.034.035-.023.058-.046.093-.057.012-.011.023-.011.047-.023.046-.023.093-.045.128-.068 0 0 .012 0 .012-.012.023-.011.058-.022.081-.034h.012c.047-.023.093-.034.14-.057.012 0 .035-.011.047-.011a.33.33 0 0 1 .105-.023c.023-.011.046-.011.081-.011.024 0 .035-.012.059-.012.046-.011.081-.011.128-.011h.035c.047 0 .093-.012.14-.012.047 0 .093 0 .14.012h.035c.047 0 .082.011.128.011.024 0 .035.012.059.012.023 0 .046.011.081.011.035.011.07.011.105.023.012 0 .024.011.047.011.047.012.093.034.14.046.012 0 .012 0 .023.011.082.034.152.069.234.114.011.012.035.023.046.034.035.023.059.035.082.057.023.012.035.035.058.046.444.342.724.867.724 1.448 0 .662-.409 1.289-1.015 1.608.011-.011.011-.011 0 0zm-1.96-9.875a10.22 10.22 0 0 1 1.376-1.448c-.105 1.368.619 2.064 1.225 2.645.56.536 1.039.992 1.085 2.007.047.924-.326 1.78-.991 2.338-.012-.011-.024-.011-.047-.023-.035-.023-.07-.034-.105-.057-.023-.011-.035-.023-.058-.023a3.4 3.4 0 0 0-.362-.148c-.012 0-.012 0-.023-.011-.059-.023-.129-.035-.187-.057a4.055 4.055 0 0 0-.397-.08h-.035c-.046-.012-.105-.012-.151-.012h-.047c-.07 0-.128-.011-.198-.011s-.129 0-.199.011h-.046c-.047 0-.105.012-.152.012h-.035a2.552 2.552 0 0 0-.583.137h-.012l-.175.068h-.012c-.058.023-.116.046-.175.08-.011.011-.023.011-.035.023-.035.022-.081.034-.116.057-.012.011-.024.011-.035.022a2.848 2.848 0 0 1-1.015-2.086c-.047-.913.501-2.178 1.505-3.444zm.98 23.48c-.84 0-1.517-.662-1.517-1.483V18.402c.338.194.723.33 1.132.399.035 0 .07.011.105.011h.781c.035 0 .07 0 .105-.011.047-.012.082-.012.129-.023.023 0 .058-.011.081-.011.012 0 .024 0 .035-.012a4.13 4.13 0 0 0 .665-.228v10.947c0 .81-.688 1.472-1.516 1.472z"/></symbol><symbol viewBox="0 0 55 52" id="logo--img--internet_marketing_icon_2" xmlns="http://www.w3.org/2000/svg"><path d="M51.333 0H3.667A3.654 3.654 0 0 0 0 3.65v34.666a3.654 3.654 0 0 0 3.667 3.649h14.666v4.561h-3.666a2.737 2.737 0 1 0 0 5.474h25.666a2.737 2.737 0 1 0 0-5.474h-3.666v-4.561h14.666A3.654 3.654 0 0 0 55 38.315V3.65A3.654 3.654 0 0 0 51.333 0zM3.667 1.825h47.666c1.009 0 1.834.82 1.834 1.824v31.018H1.833V3.649c0-1.003.825-1.824 1.834-1.824zM41.25 49.263a.917.917 0 0 1-.917.912H14.667a.917.917 0 0 1-.917-.912c0-.502.412-.912.917-.912h25.666c.505 0 .917.41.917.912zm-6.417-2.737H20.167v-4.561h14.666v4.561zm16.5-6.386H3.667a1.834 1.834 0 0 1-1.834-1.824V36.49h51.334v1.825a1.834 1.834 0 0 1-1.834 1.824z"/><path d="M9.166 18.245c0 1.003.825 1.824 1.834 1.824v8.667a3.195 3.195 0 0 0 3.208 3.193 3.195 3.195 0 0 0 3.208-3.193v-5.018h2.75c.505 0 .917-.41.917-.912v-1.87l9.912 1.847c.057.012.114.012.171.012.505 0 .917-.41.917-.913V5.473a.917.917 0 0 0-.917-.911c-.057 0-.114 0-.172.011L16.42 7.297H11a1.834 1.834 0 0 0-1.833 1.825c-2.532 0-4.583 2.041-4.583 4.561s2.051 4.562 4.583 4.562zm6.417 7.298h-2.75v-5.474h2.75v5.474zm-1.375 4.561a1.376 1.376 0 0 1-1.375-1.368v-1.368h2.75v1.368c0 .753-.619 1.368-1.375 1.368zm5.042-8.21h-1.834v-1.642l1.834.342v1.3zm11-1.095l-12.834-2.395V8.962L30.25 6.568v14.231zM11 9.122h4.583v9.123H11V9.122zm-1.834 1.825v5.473a2.737 2.737 0 1 1 0-5.474zm41.25 0H34.833v1.825h15.583v-1.825zm-3.666 3.649H34.833v1.824H46.75v-1.824zm3.667-7.297H41.25v1.824h9.167V7.3zm-.001 18.244H34.833v1.825h15.583v-1.825zm-3.666 3.65H34.833v1.825H46.75v-1.825zm3.667-7.298H41.25v1.824h9.167v-1.825zm-11.001 0h-1.833v1.824h1.833v-1.825zm0-14.596h-1.833v1.824h1.833V7.3z"/></symbol><symbol viewBox="0 0 55 52" id="logo--img--internet_marketing_icon_3" xmlns="http://www.w3.org/2000/svg"><path d="M51.333 0H3.667A3.654 3.654 0 0 0 0 3.65v34.666a3.654 3.654 0 0 0 3.667 3.649h14.666v4.561h-3.666a2.737 2.737 0 1 0 0 5.474h25.666a2.737 2.737 0 1 0 0-5.474h-3.666v-4.561h14.666A3.654 3.654 0 0 0 55 38.315V3.65A3.654 3.654 0 0 0 51.333 0zM3.667 1.825h47.666c1.009 0 1.834.82 1.834 1.824v31.018H1.833V3.649c0-1.003.825-1.824 1.834-1.824zM41.25 49.263a.917.917 0 0 1-.917.912H14.667a.917.917 0 0 1-.917-.912c0-.502.412-.912.917-.912h25.666c.505 0 .917.41.917.912zm-6.417-2.737H20.167v-4.561h14.666v4.561zm16.5-6.386H3.667a1.834 1.834 0 0 1-1.834-1.824V36.49h51.334v1.825a1.834 1.834 0 0 1-1.834 1.824z"/><path d="M14.037 24.609l.252-.97a1.5 1.5 0 0 1-1.135-1.447V6.18c0-.832.676-1.505 1.513-1.505h20.098c.836 0 1.512.673 1.512 1.505v.502h1.008V6.18a2.503 2.503 0 0 0-2.509-2.497h-20.11a2.503 2.503 0 0 0-2.509 2.497v16a2.492 2.492 0 0 0 1.88 2.428z"/><path d="M15.17 5.68h-1.008v1.003h1.008V5.68zm2.006 0h-1.008v1.003h1.008V5.68zm2.017 0h-1.008v1.003h1.008V5.68zm18.287 19.5h.802v-1.004h-.584a6.6 6.6 0 0 0-.424-3.58V15.68h-1.008v3.182a6.655 6.655 0 0 0-1.009-1.038v-4.14h-.997v3.445a7.44 7.44 0 0 0-1.008-.48v-4.971h-1.008v4.664a7.38 7.38 0 0 0-1.009-.137V12.68h-1.008v3.524a7.63 7.63 0 0 0-1.008.137v-1.665H28.21v1.973a8.152 8.152 0 0 0-1.008.479v-2.943h-1.008v3.65c-.367.308-.71.661-1.009 1.037V15.19h-1.008v5.417a6.709 6.709 0 0 0-.424 3.58h-6.611v1.004h6.829c1.1 3.695 5.007 5.804 8.72 4.71a6.96 6.96 0 0 0 2.05-.993l4.653 4.63a.507.507 0 0 0 .71 0l1.513-1.505a.5.5 0 0 0 0-.707l-4.767-4.744a5.72 5.72 0 0 0 .63-1.402zm-12.764-1.996c0-3.319 2.704-5.998 6.027-5.998s6.027 2.69 6.027 5.998c0 3.307-2.704 5.998-6.027 5.998-3.335 0-6.027-2.691-6.027-5.998zm15.858 8.495l-.802.799-4.228-4.208c.275-.262.527-.536.756-.833l4.274 4.242z"/><path d="M30.742 18.188c-2.773 0-5.018 2.235-5.018 4.994 0 2.76 2.245 4.995 5.018 4.995 2.773 0 5.02-2.235 5.02-4.995 0-2.76-2.247-4.994-5.02-4.994zm-2.52 1.881v3.113h1.008v-3.706a4.36 4.36 0 0 1 1.008-.262v3.968h1.009v-3.968a3.84 3.84 0 0 1 1.008.262v3.706h1.008V20.07a3.965 3.965 0 0 1 1.375 4.117H26.87a3.899 3.899 0 0 1 1.352-4.117zm2.52 7.116a4.012 4.012 0 0 1-3.472-1.996h6.956a4.06 4.06 0 0 1-3.484 1.996z"/><path d="M15.16 10.183v15.999a2.503 2.503 0 0 0 2.509 2.497h6.53v-1.003h-6.53a1.507 1.507 0 0 1-1.513-1.505V10.183c0-.833.676-1.505 1.513-1.505h20.098c.836 0 1.512.672 1.512 1.505v15.999c0 .365-.138.719-.378.992l.756.662c.401-.457.63-1.05.63-1.654v-16a2.503 2.503 0 0 0-2.51-2.496H17.68a2.52 2.52 0 0 0-2.52 2.497z"/><path d="M18.184 9.682h-1.008v1.003h1.008V9.682zm2.006 0h-1.008v1.003h1.008V9.682zm2.017 0h-1.009v1.003h1.009V9.682zm-3.014 10.502h-1.008v2.999h1.008v-3zm2.005-2.998h-1.009v5.998h1.009v-5.998zm2.006 1.494h-1.009v4.504h1.009V18.68z"/></symbol><symbol viewBox="0 0 55 52" id="logo--img--internet_marketing_icon_4" xmlns="http://www.w3.org/2000/svg"><path d="M51.333 0H3.667A3.654 3.654 0 0 0 0 3.65v34.666a3.654 3.654 0 0 0 3.667 3.649h14.666v4.561h-3.666a2.737 2.737 0 1 0 0 5.474h25.666a2.737 2.737 0 1 0 0-5.474h-3.666v-4.561h14.666A3.654 3.654 0 0 0 55 38.315V3.65A3.654 3.654 0 0 0 51.333 0zM3.667 1.825h47.666c1.009 0 1.834.82 1.834 1.824v31.018H1.833V3.649c0-1.003.825-1.824 1.834-1.824zM41.25 49.263a.917.917 0 0 1-.917.912H14.667a.917.917 0 0 1-.917-.912c0-.502.412-.912.917-.912h25.666c.505 0 .917.41.917.912zm-6.417-2.737H20.167v-4.561h14.666v4.561zm16.5-6.386H3.667a1.834 1.834 0 0 1-1.834-1.824V36.49h51.334v1.825a1.834 1.834 0 0 1-1.834 1.824z"/><path d="M39.428 3.787a.504.504 0 1 0-.86-.354l-4.583 4.562a.52.52 0 0 0-.149.353v.525c-5.34-3.638-12.638-2.292-16.305 3.022-3.472 5.04-2.452 11.894 2.338 15.714l-2.315 5.416a.498.498 0 0 0 .264.662c.068.023.126.046.194.046h18.345a.5.5 0 0 0 .504-.502.373.373 0 0 0-.046-.194l-2.291-5.44a11.628 11.628 0 0 0 3.116-14.402l-.905.456a10.613 10.613 0 0 1 1.169 4.846c.011 5.896-4.778 10.674-10.702 10.686-5.924.01-10.725-4.756-10.737-10.651-.011-5.896 4.779-10.674 10.703-10.685 2.417 0 4.766.81 6.657 2.292v1.049l-.883.878c-3.563-3.17-9.029-2.862-12.214.684a8.635 8.635 0 0 0-1.925 3.592l.985.251c1.055-4.06 5.214-6.511 9.293-5.462a7.716 7.716 0 0 1 3.14 1.653l-1.444 1.437c-2.383-1.973-5.913-1.653-7.895.707a5.566 5.566 0 0 0 .71 7.857 5.61 5.61 0 0 0 2.476 1.186l.206-.992c-2.487-.502-4.09-2.908-3.587-5.382a4.585 4.585 0 0 1 5.409-3.57 4.617 4.617 0 0 1 1.959.913L28.6 16.387a2.559 2.559 0 0 0-3.54.718 2.532 2.532 0 0 0 .721 3.524 2.559 2.559 0 0 0 3.54-.718 2.546 2.546 0 0 0 0-2.806l1.456-1.448a4.548 4.548 0 0 1-.71 6.409 4.64 4.64 0 0 1-1.502.798l.31.97c2.956-.924 4.595-4.049 3.666-6.991a5.532 5.532 0 0 0-1.042-1.905l1.444-1.436a7.567 7.567 0 0 1-.722 10.73 7.654 7.654 0 0 1-10.783-.718 7.517 7.517 0 0 1-1.65-3.113l-.985.25c1.18 4.62 5.901 7.402 10.53 6.227 4.64-1.175 7.437-5.873 6.256-10.48a8.542 8.542 0 0 0-1.936-3.615l.882-.878h2.842a.504.504 0 0 0 .355-.148l4.583-4.561a.515.515 0 0 0 0-.719.525.525 0 0 0-.355-.148h-2.544V3.787h.012zm-5.74 24.426l1.924 4.493h-16.81l.436-1.015h3.896v-1.015h-3.46l1.054-2.463a11.74 11.74 0 0 0 12.96 0zM35.863 7.55v1.608l-1.02 1.015V8.565l1.02-1.015zm-7.138 10.947a1.52 1.52 0 0 1-1.524 1.517 1.52 1.52 0 0 1-1.524-1.517 1.52 1.52 0 0 1 2.177-1.368l-1.02 1.015.722.718 1.02-1.015c.103.206.149.422.149.65zM40.757 7.345l-3.563 3.546h-1.616l2.681-2.68-.722-.718-.664.661V6.535l1.547-1.517v1.825a.5.5 0 0 0 .504.502h1.833z"/><path d="M18.47 17.563c-.011.216-.023.444-.023.672 0 .228.012.445.023.673l1.272-.08c-.011-.194-.023-.399-.023-.593 0-.194.012-.399.023-.593l-1.272-.08zm7.013 12.977H24.21v1.265h1.272v-1.266z"/></symbol><symbol viewBox="0 0 80 80" id="logo--img--internet_speed" xmlns="http://www.w3.org/2000/svg"><circle cx="40" cy="40" r="40"/><path d="M40 8C22.327 8 8 22.327 8 40c0 17.673 14.327 32 32 32 17.673 0 32-14.327 32-32-.02-17.665-14.335-31.98-32-32zm0 61.867c-16.495 0-29.867-13.372-29.867-29.867S23.505 10.133 40 10.133 69.867 23.505 69.867 40C69.847 56.487 56.487 69.848 40 69.867z"/><path d="M40 12.267c-15.317 0-27.733 12.416-27.733 27.733S24.683 67.733 40 67.733 67.733 55.317 67.733 40C67.716 24.69 55.31 12.284 40 12.267zM40 65.6c-14.14 0-25.6-11.461-25.6-25.6 0-14.14 11.46-25.6 25.6-25.6 14.139 0 25.6 11.461 25.6 25.6-.016 14.132-11.468 25.584-25.6 25.6z"/><path d="M19.733 38.934h-4.266v2.133h4.266v-2.133zm44.8 0h-4.266v2.133h4.266v-2.133zM21.914 49.212l-3.695 2.133 1.066 1.847 3.696-2.133-1.067-1.847zm38.8-22.402l-3.695 2.132 1.066 1.848 3.695-2.133-1.066-1.848zm-41.428 0l-1.066 1.847 3.695 2.133 1.067-1.848-3.696-2.133zm38.8 22.394l-1.066 1.848 3.695 2.133 1.066-1.848-3.695-2.133zM28.653 18.22l-1.847 1.066 2.133 3.695 1.847-1.066-2.133-3.695zm12.414-2.753h-2.133v4.266h2.133v-4.266zm10.275 2.752l-2.133 3.695 1.848 1.066 2.133-3.695-1.848-1.066zM16.578 32.62l-.553 2.06 3.091.828.552-2.06-3.09-.829zm44.297 11.87l-.552 2.06 3.091.828.552-2.06-3.09-.829zM23.407 21.898l-1.509 1.508 2.263 2.263 1.509-1.509-2.263-2.262zm11.269-5.871l-2.06.552.827 3.091 2.061-.552-.828-3.091zm10.641.006l-.828 3.091 2.06.552.829-3.09-2.06-.553zm11.276 5.868l-2.263 2.263 1.509 1.508L58.1 23.41l-1.507-1.51zm6.834 10.719l-3.091.827.552 2.06 3.09-.827-.551-2.06zM19.116 44.491l-3.09.828.552 2.06 3.09-.827-.552-2.06zm25.41-22.042c-9.699-2.498-19.586 3.338-22.084 13.037a18.133 18.133 0 0 0 1.851 13.58A1.067 1.067 0 0 0 26.14 48c-4.413-7.656-1.785-17.44 5.871-21.853 7.656-4.413 17.44-1.784 21.853 5.872a16 16 0 0 1 1.632 11.983 1.067 1.067 0 0 0 2.067.533v-.003c2.498-9.698-3.34-19.585-13.037-22.083z"/><path d="M55.608 47.708l-11.733-9.6a1.006 1.006 0 0 0-.1-.054 4.255 4.255 0 1 0-4.031 6.187l14.827 5.296a1.067 1.067 0 0 0 1.038-1.83zM40 42.133a2.133 2.133 0 1 1 0-4.266 2.133 2.133 0 0 1 0 4.266zm2.907.973a4.241 4.241 0 0 0 1.21-2.045l5.376 4.394-6.587-2.349zm1.36 7.561h-8.533a5.333 5.333 0 0 0 0 10.667h8.533a5.333 5.333 0 0 0 0-10.667zm0 8.533h-8.533a3.2 3.2 0 1 1 0-6.4h8.533a3.2 3.2 0 0 1 0 6.4z"/><path d="M37.867 54.934h-2.133a1.067 1.067 0 0 0 0 2.133h2.133a1.067 1.067 0 0 0 0-2.133zm6.399 0h-2.133a1.067 1.067 0 0 0 0 2.133h2.133a1.067 1.067 0 0 0 0-2.133z"/></symbol><symbol viewBox="0 0 39 54" id="logo--img--lisence" xmlns="http://www.w3.org/2000/svg"><path d="M37.928 0H1.072C.484 0 0 .485 0 1.076v51.848C0 53.514.484 54 1.072 54h28.026c.283 0 .557-.116.756-.316l8.83-8.86c.2-.2.316-.474.316-.76V1.077A1.08 1.08 0 0 0 37.928 0zM2.144 2.152h34.712v40.837l-7.769-.01a1.08 1.08 0 0 0-1.072 1.076l.01 7.793H2.145V2.152zM30.16 45.13h5.183l-5.172 5.19-.01-5.19z"/><path d="M10.986 38.813c-2.691 0-4.888 2.193-4.888 4.904 0 2.7 2.197 4.904 4.888 4.904 2.69 0 4.888-2.204 4.888-4.904a4.894 4.894 0 0 0-4.888-4.904zm0 7.656a2.75 2.75 0 0 1-2.744-2.752 2.75 2.75 0 0 1 2.744-2.753 2.75 2.75 0 0 1 2.743 2.753 2.75 2.75 0 0 1-2.743 2.752zM24.97 42.81h-5.898c-.588 0-1.072.485-1.072 1.075 0 .591.484 1.076 1.072 1.076h5.898c.588 0 1.072-.485 1.072-1.076 0-.59-.484-1.075-1.073-1.075zM7.482 8.607h3.112c.589 0 1.072-.486 1.072-1.076 0-.59-.483-1.076-1.072-1.076H7.482c-.588 0-1.072.485-1.072 1.076 0 .59.484 1.076 1.072 1.076zm15.133 0h9.325a1.08 1.08 0 0 0 1.072-1.076 1.08 1.08 0 0 0-1.073-1.076h-9.324c-.588 0-1.072.485-1.072 1.076 0 .59.473 1.076 1.072 1.076zm-6.555 4.629h15.863c.589 0 1.073-.485 1.073-1.075s-.484-1.076-1.073-1.076H16.061c-.59 0-1.073.485-1.073 1.076 0 .59.484 1.075 1.073 1.075zm-9.046 8.491H31.99c.588 0 1.072-.485 1.072-1.076a1.08 1.08 0 0 0-1.073-1.076H7.015c-.589 0-1.073.485-1.073 1.076 0 .59.473 1.076 1.073 1.076zm0 3.659H31.99c.588 0 1.072-.485 1.072-1.076a1.08 1.08 0 0 0-1.073-1.076H7.015c-.589 0-1.073.485-1.073 1.076 0 .59.473 1.076 1.073 1.076zm0 3.977H31.99a1.08 1.08 0 0 0 1.072-1.076 1.08 1.08 0 0 0-1.073-1.076H7.015c-.589 0-1.073.485-1.073 1.076 0 .59.473 1.076 1.073 1.076zm24.975 1.508H31.4c-.588 0-1.072.485-1.072 1.076 0 .59.484 1.076 1.072 1.076h.589c.589 0 1.072-.486 1.072-1.076 0-.59-.483-1.076-1.072-1.076zm-3.268 1.076c0-.59-.483-1.076-1.072-1.076H7.014c-.589 0-1.073.485-1.073 1.076 0 .59.484 1.076 1.073 1.076h20.635c.589 0 1.072-.486 1.072-1.076z"/></symbol><symbol viewBox="0 0 120 37" id="logo--img--logo" xmlns="http://www.w3.org/2000/svg"><path d="M7.866 9.73a8.999 8.999 0 0 0-1.113 4.371v13.114c0 5.112 4.202 9.272 9.41 9.272h1.58c.575-3.49 1.581-6.804 3.018-9.906C17.492 20.2 13.11 14.524 7.866 9.73zM58.725 28.414h-3.843v.846h1.4v5.534h1.006V29.26h1.437v-.846zm1.4 1.375c-.539 0-.97.211-1.293.634-.287.423-.467 1.093-.467 1.974 0 1.692.647 2.538 1.904 2.538.251 0 .503-.035.682-.105.18-.07.324-.141.431-.177l.036-.035-.18-.81-.107.07a1.51 1.51 0 0 1-.718.211c-.216 0-.396-.035-.54-.105-.322-.177-.502-.6-.502-1.27h2.263v-.493c0-.74-.108-1.304-.36-1.727-.215-.494-.61-.705-1.149-.705zm-.036.846c.216 0 .36.105.431.317.072.211.108.529.144.916h-1.257c.036-.352.108-.67.215-.88a.455.455 0 0 1 .467-.353zm2.981.352c0 1.093-.071 1.834-.25 2.292-.072.211-.18.388-.324.529a1.086 1.086 0 0 1-.539.246h-.107l.107.846h.072c.36 0 .683-.105.934-.282.718-.493 1.078-1.657 1.078-3.49v-.387h.79v4.054h.97v-4.9h-2.73v1.092zm5.353-1.198c-.539 0-.97.211-1.293.634-.287.423-.467 1.093-.467 1.974 0 1.692.647 2.538 1.904 2.538.251 0 .503-.035.682-.105.18-.07.323-.141.431-.177l.036-.035-.18-.81-.107.07a1.51 1.51 0 0 1-.719.211 1.22 1.22 0 0 1-.538-.105c-.324-.177-.503-.6-.503-1.27h2.263v-.493c0-.74-.108-1.304-.36-1.727-.215-.494-.61-.705-1.149-.705zm-.036.846c.216 0 .36.105.431.317.072.211.108.529.144.916h-1.257c.036-.352.107-.67.215-.88.072-.248.216-.353.467-.353zm5.423 3.385c-.395-.706-.79-1.34-1.257-1.87a21.95 21.95 0 0 0 1.4-2.114l.073-.142h-1.042l-.036.036a9.616 9.616 0 0 1-.467.775c-.18.318-.43.635-.682 1.023v-1.834h-.97v4.9h.97v-2.15c.072.07.143.177.215.282.467.67.827 1.27 1.114 1.833l.036.07h1.041l-.072-.14c-.107-.212-.215-.423-.323-.67zm2.191-4.231c-.287 0-.575.07-.79.176-.647.352-.97 1.163-.97 2.362 0 .775.144 1.41.431 1.833.324.493.755.74 1.365.74.575 0 1.042-.247 1.329-.74.144-.212.251-.494.323-.81a4.48 4.48 0 0 0 .108-1.023c0-.776-.144-1.41-.431-1.833-.323-.459-.754-.705-1.365-.705zm0 .88c.503 0 .754.565.754 1.693 0 1.128-.251 1.692-.754 1.692s-.754-.564-.754-1.692c0-1.128.251-1.692.754-1.692zM82.647 30v-.07H81.64l-.036.07c-.323.776-.61 1.692-.934 2.715A30.063 30.063 0 0 0 79.737 30l-.036-.07h-1.005V30c-.144 1.798-.252 3.384-.252 4.724v.106h.934v-1.516c0-.6.036-1.234.072-1.869.072.212.144.459.251.776.18.6.396 1.234.54 1.904v.07h.754l.035-.07c.324-1.164.575-2.045.79-2.68.037.424.037.917.037 1.446v1.939h.933v-.106c.072-1.763-.036-3.349-.143-4.724zm3.16 4.794h1.005V29.26h1.796v5.534h1.006v-6.38h-3.807v6.38zm6.321-5.005c-.539 0-.97.211-1.293.634-.287.423-.467 1.093-.467 1.974 0 1.692.647 2.538 1.904 2.538.251 0 .503-.035.682-.105.18-.07.324-.141.431-.177l.036-.035-.18-.81-.107.07a1.51 1.51 0 0 1-.719.211c-.215 0-.395-.035-.538-.105-.324-.177-.503-.6-.503-1.27h2.263v-.493c0-.74-.108-1.304-.36-1.727-.215-.494-.61-.705-1.149-.705zm-.036.846c.216 0 .36.105.431.317.072.211.108.529.144.916H91.41c.036-.352.108-.67.215-.88.072-.248.216-.353.467-.353zm1.832.141h1.221v4.019h.97v-4.02H97.3v-.88h-3.376v.88zm5.352-.987c-.54 0-.97.211-1.293.634-.288.423-.467 1.093-.467 1.974 0 1.692.646 2.538 1.903 2.538.252 0 .503-.035.683-.105.179-.07.323-.141.431-.177l.036-.035-.18-.81-.108.07c-.503.247-1.005.247-1.257.106-.323-.177-.503-.6-.503-1.27h2.263v-.493c0-.74-.108-1.304-.359-1.727-.216-.494-.61-.705-1.15-.705zm-.036.846c.215 0 .359.105.43.317.073.211.108.529.144.916h-1.257c.036-.387.108-.67.216-.88.072-.248.215-.353.467-.353zm4.741-.67c-.252-.106-.575-.176-1.006-.176-.395 0-.79.07-1.185.246l-.072.036v6.416h.97V34.83c.179.07.395.105.574.105.611 0 1.078-.211 1.329-.67.252-.422.395-1.057.395-1.868 0-.81-.143-1.445-.467-1.868-.071-.247-.287-.423-.538-.564zm.071 2.397c0 .635-.071 1.093-.251 1.34a.833.833 0 0 1-.251.246.868.868 0 0 1-.827-.035V30.67c.108-.035.252-.035.36-.035.323 0 .574.105.718.387.18.282.251.706.251 1.34zm3.449-2.115c-.287 0-.575.035-.79.14.036-.14.036-.281.072-.387.107-.634.431-1.022.898-1.198.179-.071.323-.106.538-.142l.683-.14-.144-.882-.754.141a2.42 2.42 0 0 0-.719.212 2.74 2.74 0 0 0-.718.458 2.489 2.489 0 0 0-.539.846 4.173 4.173 0 0 0-.287 1.27c-.036.21-.036.422-.036.669v.81c0 .318.036.67.072 1.023.18 1.199.754 1.833 1.688 1.833.575 0 1.006-.211 1.293-.67.287-.423.395-1.022.395-1.762 0-.776-.144-1.34-.431-1.692a1.568 1.568 0 0 0-1.221-.53zm.431 3.49c-.108.211-.251.317-.467.317-.323 0-.503-.176-.611-.529-.107-.387-.179-.916-.179-1.621v-.599c.215-.142.467-.247.718-.247.252 0 .431.105.539.352.108.247.18.635.18 1.164 0 .564-.072.951-.18 1.163zM112.026 30c-.251 1.199-.503 2.362-.826 3.42-.072-.247-.18-.635-.287-1.093-.18-.67-.324-1.48-.467-2.327v-.07h-1.006l.036.105c.359 1.834.826 3.42 1.293 4.76l-.072.176a3.29 3.29 0 0 1-.287.529c-.18.211-.503.176-.755.07l-.107-.035-.18.81.072.036c.216.106.431.14.647.14.395 0 .754-.14 1.005-.422.216-.247.467-.74.719-1.445.574-1.693 1.005-3.244 1.293-4.619l.035-.105h-.969l-.144.07zm3.807-.035c-.251-.106-.575-.176-1.006-.176-.395 0-.826.07-1.185.246l-.072.036v6.416h.97V34.83c.18.07.395.105.575.105.61 0 1.077-.211 1.365-.67.251-.422.395-1.057.395-1.868 0-.81-.144-1.445-.467-1.868-.108-.247-.323-.423-.575-.564zm.072 2.397c0 .635-.072 1.093-.251 1.34a.824.824 0 0 1-.252.246c-.18.106-.539.141-.826-.035V30.67c.108-.035.251-.035.359-.035.323 0 .575.105.719.387.179.282.251.706.251 1.34zm1.725-2.467v4.9h.97v-4.02h1.4v-.88h-2.37zM66.232 6.628c-.61 0-1.15.14-1.185.14l-.108.036v8.284c-.251.212-1.58 1.164-4.454 1.164-2.19 0-2.981-.67-2.981-2.503v-6.98l-.108-.036c-.036 0-.538-.14-1.185-.14-.575 0-1.15.14-1.185.14l-.108.036v6.944c0 2.961 1.58 4.336 4.92 4.336 2.766 0 4.526-.81 5.137-1.163v8.073l.108.035c.035 0 .574.141 1.185.141.575 0 1.15-.14 1.185-.14l.108-.036V6.769l-.108-.036c-.072 0-.646-.105-1.221-.105zm9.447 5.076c-3.592 0-5.137 1.234-5.137 4.054v.423l.108.035c.036 0 .539.142 1.078.142.538 0 1.041-.142 1.077-.142l.108-.035v-.423c0-1.692.754-2.326 2.766-2.326 2.047 0 2.837.67 2.837 2.397v1.304l-3.34.352c-3.376.353-4.885 1.516-4.885 3.702v.388c0 2.468 1.257 3.666 3.807 3.666 2.37 0 3.843-.74 4.418-1.093v.882l.108.035c.036 0 .539.14 1.113.14.575 0 1.114-.14 1.114-.14l.108-.035v-9.166c.035-2.856-1.653-4.16-5.28-4.16zm-.79 11.774c-1.51 0-2.084-.528-2.084-1.938v-.388c0-.917.323-1.763 2.802-2.01l2.91-.352v3.49c-.216.247-1.294 1.198-3.629 1.198zM89.363 9.977c2.55 0 3.627-.847 3.627-2.856V6.77l-.107-.036s-.395-.14-.79-.14c-.431 0-.79.14-.827.14l-.107.036v.387c0 .917-.288 1.446-1.796 1.446-1.509 0-1.832-.53-1.832-1.446V6.77l-.108-.036s-.359-.14-.79-.14c-.43 0-.79.14-.826.14l-.108.036v.352c.036 2.01 1.114 2.856 3.664 2.856zm4.381 1.797c-.503 0-1.005.141-1.005.141h-.072l-6.358 9.201v-9.165l-.107-.036c-.036 0-.54-.14-1.114-.14-.575 0-1.113.14-1.15.14l-.107.036v13.043l.108.035c.036 0 .503.141 1.041.141.503 0 1.006-.14 1.006-.14h.072l6.357-9.202v9.201l.108.036c.036 0 .539.14 1.114.14.574 0 1.113-.14 1.113-.14l.108-.036V11.986l-.108-.035c0-.036-.467-.177-1.006-.177zm14.224.353l.144-.176-.216-.07c-.036 0-.538-.142-1.149-.142-.575 0-1.185.141-1.185.141h-.072l-3.843 5.253-1.401.388v-5.64l-.108-.036c-.036 0-.539-.14-1.113-.14-.61 0-1.114.14-1.15.14l-.107.035v13.044l.107.035c.036 0 .54.141 1.15.141.538 0 1.113-.14 1.113-.14l.108-.036v-5.535l1.401-.388 4.094 5.958.036.035h.072c.036 0 .646.141 1.185.141.611 0 1.15-.14 1.186-.14l.215-.036-4.669-6.91 4.202-5.922zm6.717-.423c-3.592 0-5.136 1.234-5.136 4.054v.423l.107.035c.036 0 .539.142 1.078.142s1.041-.142 1.077-.142l.108-.035v-.423c0-1.692.754-2.326 2.766-2.326 2.047 0 2.837.67 2.837 2.397v1.304l-3.304.352c-3.376.353-4.885 1.516-4.885 3.702v.388c0 2.468 1.257 3.666 3.807 3.666 2.371 0 3.843-.74 4.418-1.093v.882l.108.035c.036 0 .539.14 1.113.14.575 0 1.114-.14 1.114-.14l.107-.035v-9.166c0-2.856-1.688-4.16-5.315-4.16zm-.79 11.774c-1.509 0-2.084-.528-2.084-1.938v-.388c0-.917.324-1.763 2.802-2.01l2.909-.352v3.49c-.215.247-1.293 1.198-3.627 1.198zM22.161 8.002c2.227 1.48 4.382 3.102 6.465 4.795 2.048-1.94 4.382-3.878 7.112-5.606a9.438 9.438 0 0 0-6.214-2.326h-12.57a96.294 96.294 0 0 1 5.207 3.137zM45.723 4.9c-6.86 1.727-11.889 5.394-16.989 10.364-.215-.211-.467-.388-.682-.564 1.436 1.234 2.765 2.538 4.023 3.843 2.909-4.195 7.506-9.413 14.187-13.467-.18-.106-.323-.176-.539-.176z"/><path d="M17.743 36.487h6.932a58.205 58.205 0 0 0-3.915-9.906 37.344 37.344 0 0 0-3.017 9.906zM32.038 18.543c-1.257-1.305-2.586-2.609-4.022-3.843-2.335-1.938-4.634-3.666-6.932-5.147-2.55-1.692-4.993-3.102-7.328-4.265-.107-.035-.215-.106-.287-.141-.323-.176-.646-.317-.97-.494C9.123 2.996 5.46 1.551 1.652.317A26.972 26.972 0 0 1 .467 0 .726.726 0 0 0 0 .388c3.843 2.15 13.649 7.932 19.503 14.207a260.26 260.26 0 0 1 1.616 1.797c3.7 4.23 5.604 7.262 6.358 8.637.072.07.215.106.359.106s.287-.035.36-.106h.071c.539-1.198 1.76-3.595 3.771-6.486zM33.583 19.6l-.216.317c2.047 2.327 3.915 4.76 5.567 7.368V14.171c0-.317-.035-.599-.072-.881-2.262 2.221-3.986 4.477-5.28 6.31z"/><path d="M33.367 19.882c-1.652 2.397-2.73 4.442-3.268 5.57-.754 1.34-1.473 1.833-2.227 1.833-1.185 0-2.406-2.044-2.406-2.044v.035c-.467-.81-1.222-1.939-2.263-3.384a36.184 36.184 0 0 0-2.478 4.653c1.616 3.138 2.909 6.487 3.915 9.906h4.848c5.209 0 9.41-4.124 9.41-9.236a59.733 59.733 0 0 0-5.53-7.333z"/><path d="M19.682 17.591c-.503-.564-1.006-1.163-1.58-1.763-2.55-2.714-5.855-5.358-9.087-7.65a9.97 9.97 0 0 0-1.15 1.587c5.28 4.76 9.626 10.47 12.859 16.816.718-1.622 1.58-3.138 2.514-4.654a70.132 70.132 0 0 0-3.556-4.336z"/></symbol><symbol viewBox="0 0 141 44" id="logo--img--logo_white" xmlns="http://www.w3.org/2000/svg"><g clip-path="url(#azclip0)"><path d="M68.99 33.933h-4.484v1.041h1.638v6.683h1.208v-6.683h1.638v-1.041zm1.638 1.735c-.603 0-1.12.26-1.552.781-.345.52-.517 1.302-.517 2.343 0 1.996.776 3.038 2.242 3.038.345 0 .603 0 .776-.087.259-.087.345-.174.517-.26h.087l-.173-.955-.086.087c-.259.173-.604.26-.862.26-.26 0-.518 0-.604-.087-.345-.173-.604-.694-.604-1.562h2.587v-.607c0-.868-.172-1.563-.43-2.083-.26-.608-.69-.868-1.38-.868zm0 .955c.259 0 .431.086.518.347.086.26.172.607.172 1.128h-1.466c0-.434.086-.781.259-1.041 0-.26.259-.434.517-.434zm3.537.434c0 1.301-.086 2.256-.345 2.777-.086.26-.259.434-.345.607a.78.78 0 0 1-.604.26h-.086l.173 1.042h.086c.431 0 .776-.087 1.121-.347.862-.608 1.294-1.996 1.294-4.166v-.434h.948v4.86h1.121v-5.901h-3.363v1.302zm6.209-1.389c-.603 0-1.12.26-1.552.781-.345.52-.517 1.302-.517 2.343 0 1.996.776 3.038 2.242 3.038.345 0 .604 0 .776-.087.259-.087.345-.174.518-.26h.086l-.173-.955-.086.087c-.259.173-.604.26-.862.26-.26 0-.518 0-.604-.087-.345-.173-.604-.694-.604-1.562h2.674v-.607c0-.868-.173-1.563-.431-2.083-.345-.608-.777-.868-1.467-.868zm0 .955c.26 0 .432.086.518.347.086.26.172.607.172 1.128h-1.466c0-.434.087-.781.259-1.041 0-.26.172-.434.517-.434zm6.294 4.079a11.283 11.283 0 0 0-1.466-2.257c.518-.694 1.035-1.562 1.639-2.603l.086-.174H85.72v.087c-.087.173-.259.434-.604.954-.259.347-.517.781-.776 1.215v-2.256h-1.121v5.988h1.12v-2.603a1.2 1.2 0 0 1 .26.347c.517.78.948 1.562 1.293 2.17v.086H87.1l-.087-.173c0-.174-.172-.434-.345-.781zm2.675-5.034c-.345 0-.69.087-.949.26-.776.434-1.12 1.389-1.12 2.864 0 .955.172 1.65.517 2.257.345.607.862.867 1.552.867.69 0 1.207-.26 1.552-.867.173-.26.26-.608.345-.955.087-.347.087-.781.087-1.215 0-.955-.173-1.649-.518-2.256-.258-.695-.776-.955-1.466-.955zm-.086 1.041c.604 0 .862.695.862 2.083 0 1.389-.258 2.083-.862 2.083s-.863-.694-.863-2.083c0-1.388.346-2.083.863-2.083zm7.846-.867v-.087h-1.207v.087c-.345.954-.69 1.996-1.121 3.297-.345-1.215-.69-2.343-1.122-3.297v-.087h-1.207v.087c-.172 2.17-.258 4.079-.258 5.727v.087h1.12v-1.822c0-.695 0-1.476.087-2.257.086.26.172.521.258.955.26.694.432 1.475.69 2.256v.087h.863v-.087c.345-1.388.69-2.43.948-3.21 0 .52.087 1.128.087 1.735v2.343h1.12v-.087c0-2.082-.085-3.992-.258-5.727zm3.709 5.815h1.208v-6.683h2.07v6.683h1.207v-7.724h-4.485v7.724zm7.416-5.989c-.604 0-1.121.26-1.552.781-.345.52-.518 1.302-.518 2.343 0 1.996.776 3.038 2.242 3.038.345 0 .604 0 .777-.087.258-.087.344-.174.517-.26h.086l-.172-.955-.086.087c-.259.173-.604.26-.863.26s-.517 0-.604-.087c-.345-.173-.603-.694-.603-1.562h2.673v-.607c0-.868-.172-1.563-.431-2.083-.345-.608-.776-.868-1.466-.868zm0 .955c.259 0 .431.086.517.347.087.26.173.607.173 1.128h-1.466c0-.434.086-.781.258-1.041 0-.26.173-.434.518-.434zm2.157.173h1.38v4.86h1.121v-4.86h1.466v-1.041h-3.967v1.041zm6.208-1.128c-.604 0-1.121.26-1.552.781-.345.52-.518 1.302-.518 2.343 0 1.996.777 3.038 2.243 3.038.345 0 .603 0 .776-.087.259-.087.431-.174.517-.26h.086l-.258-.955-.086.087c-.604.347-1.208.26-1.467.087-.345-.174-.603-.695-.603-1.563h2.673v-.607c0-.868-.172-1.562-.431-2.083-.259-.52-.69-.781-1.38-.781zm0 .955c.259 0 .431.086.518.347.086.26.172.607.172 1.128h-1.466c0-.434.086-.781.259-1.041.086-.26.258-.434.517-.434zm5.606-.782c-.259-.173-.69-.26-1.208-.26-.517 0-.948.087-1.379.26h-.087v7.724h1.121v-1.909c.259.087.432.087.69.087.69 0 1.294-.26 1.553-.781.345-.521.431-1.302.431-2.257 0-.954-.173-1.735-.518-2.256-.086-.26-.344-.434-.603-.608zm.086 2.864c0 .781-.086 1.302-.259 1.65a.673.673 0 0 1-.345.346c-.258.087-.603.174-.948 0v-3.905c.172 0 .258-.087.431-.087.431 0 .69.174.862.434.087.26.259.868.259 1.562zm4.055-2.516c-.345 0-.69.087-.949.173 0-.173.086-.347.086-.434.173-.78.518-1.215 1.035-1.475.173-.087.432-.174.604-.174l.776-.173-.172-1.041-.863.173c-.258.087-.603.174-.862.26-.259.087-.604.26-.862.521-.259.26-.518.608-.604 1.041-.173.434-.259.955-.345 1.563 0 .26 0 .52-.086.78v.955c0 .348 0 .781.086 1.215.259 1.476.862 2.17 1.983 2.17.69 0 1.208-.26 1.553-.781.345-.52.517-1.215.517-2.17 0-.954-.172-1.649-.517-2.083-.345-.347-.863-.52-1.38-.52zm.517 4.165c-.172.26-.345.348-.603.348-.345 0-.604-.174-.69-.608-.173-.434-.173-1.128-.173-1.996V37.317c.259-.174.518-.26.863-.26s.517.173.603.433c.173.26.173.782.173 1.39 0 .78-.086 1.214-.173 1.474zm4.742-4.512c-.259 1.475-.604 2.864-.949 4.166-.086-.348-.172-.782-.345-1.302-.172-.781-.431-1.736-.603-2.777v-.087h-1.208v.173c.432 2.17.949 4.166 1.553 5.728l-.086.26c-.087.26-.259.521-.345.695a.661.661 0 0 1-.863.087l-.086-.087-.259.954h.086c.259.087.518.174.777.174.517 0 .862-.174 1.207-.52.259-.261.517-.868.862-1.736a46.332 46.332 0 0 0 1.553-5.555v-.173h-1.294zm4.485-.001c-.259-.173-.69-.26-1.208-.26a3.56 3.56 0 0 0-1.38.26h-.086v7.724h1.121v-1.909c.259.087.431.087.69.087.69 0 1.294-.26 1.552-.781.345-.521.432-1.302.432-2.257 0-.954-.173-1.735-.518-2.256-.086-.26-.258-.434-.603-.608zm.086 2.864c0 .781-.086 1.302-.259 1.65a.673.673 0 0 1-.345.346c-.259.087-.604.174-.948 0v-3.905c.172 0 .258-.087.431-.087.431 0 .69.174.862.434.173.26.259.868.259 1.562zm1.984-2.95v5.901h1.208v-4.86H141v-1.041h-2.846zM77.787 7.724c-.69 0-1.38.173-1.38.173h-.172v9.98c-.259.26-1.897 1.389-5.26 1.389-2.588 0-3.536-.781-3.536-3.037V7.897h-.173s-.69-.173-1.38-.173-1.38.173-1.38.173h-.172v8.332c0 3.558 1.811 5.207 5.778 5.207 3.277 0 5.26-.955 6.037-1.389v9.72h.172s.69.174 1.38.174 1.38-.174 1.38-.174h.172V7.897h-.172c.086 0-.604-.173-1.294-.173zm11.125 6.075c-4.225 0-6.036 1.475-6.036 4.86v.52h.172s.604.174 1.294.174c.603 0 1.207-.174 1.293-.174h.173v-.52c0-2.083.862-2.777 3.19-2.777 2.415 0 3.364.78 3.364 2.864v1.562l-3.88.434c-3.968.434-5.779 1.822-5.779 4.426v.434c0 2.95 1.466 4.426 4.484 4.426 2.76 0 4.485-.868 5.175-1.302v1.041h.172s.604.174 1.294.174c.69 0 1.293-.174 1.293-.174h.173V18.832c-.172-3.384-2.156-5.033-6.382-5.033zm-.948 14.233c-1.811 0-2.415-.608-2.415-2.344v-.433c0-1.042.431-2.17 3.277-2.43l3.45-.434v4.252c-.26.26-1.553 1.389-4.312 1.389zm17.074-16.23c3.019 0 4.226-1.041 4.226-3.471v-.434h-.086s-.431-.174-.949-.174c-.517 0-.948.174-.948.174l-.087.087v.434c0 1.128-.344 1.736-2.156 1.736-1.811 0-2.155-.608-2.155-1.736v-.52l-.173-.088s-.431-.173-.949-.173c-.517 0-.948.173-.948.173h-.086v.434c0 2.517 1.293 3.558 4.311 3.558zm5.089 2.084c-.604 0-1.207.173-1.207.173h-.087l-7.416 11.109V14.146h-.173s-.69-.174-1.293-.174c-.69 0-1.294.174-1.38.174h-.173v15.708h.173s.604.174 1.207.174c.604 0 1.208-.174 1.208-.174h.086l7.503-11.108v11.108h.172s.69.174 1.294.174c.69 0 1.293-.174 1.293-.174h.173V14.146h-.173c0-.087-.603-.26-1.207-.26zm16.73.52l.172-.26-.258-.087s-.69-.173-1.38-.173-1.38.173-1.38.173h-.086l-4.571 6.336-1.638.433V14.06h-.173s-.69-.173-1.293-.173c-.69 0-1.294.173-1.38.173h-.173v15.708h.173s.69.174 1.38.174c.603 0 1.293-.174 1.293-.174h.173v-6.769l1.638-.434 4.83 7.203v.087h.086s.776.174 1.38.174c.689 0 1.379-.174 1.379-.174l.259-.087-5.519-8.331 5.088-7.03zm7.848-.607c-4.225 0-6.036 1.475-6.036 4.86v.52h.172s.604.174 1.294.174c.603 0 1.207-.174 1.293-.174h.173v-.52c0-2.083.862-2.777 3.191-2.777 2.414 0 3.363.78 3.363 2.864v1.562l-3.881.434c-3.967.434-5.778 1.822-5.778 4.426v.434c0 2.95 1.466 4.426 4.484 4.426 2.76 0 4.485-.868 5.175-1.302v1.041h.172s.604.174 1.294.174c.69 0 1.293-.174 1.293-.174h.173V18.832c-.086-3.384-2.07-5.033-6.382-5.033zm-.862 14.233c-1.811 0-2.415-.608-2.415-2.344v-.433c0-1.042.431-2.17 3.277-2.43l3.45-.434v4.252c-.345.26-1.552 1.389-4.312 1.389zM45.62 15.274c-.776.781-1.466 1.563-2.155 2.344v15.187c0 4.86-3.968 8.765-8.797 8.765H18.973c-4.83 0-8.797-3.992-8.797-8.852V17.01c0-1.475.345-2.777.949-4.079.086-.087.086-.173.172-.26v-.087c.173-.347.777-1.215 1.38-1.822-.603-.434-1.207-.955-1.897-1.389-.604.608-1.121 1.389-1.552 2.17 0 .087-.086.173-.173.26-.862 1.562-1.293 3.298-1.293 5.207v15.795c0 6.162 5.002 11.108 11.038 11.108h15.696c6.123 0 11.038-4.946 11.038-11.108V17.01c.259-.52.173-1.128.086-1.736z"/><path d="M53.727 5.901c-8.02 2.083-13.971 6.51-20.008 12.497-.258-.26-.517-.433-.776-.694-2.76-2.343-5.433-4.426-8.106-6.248-3.019-1.996-5.864-3.732-8.624-5.12-.086-.087-.259-.087-.345-.174-.345-.174-.776-.347-1.121-.608A98.308 98.308 0 0 0 1.983.347C1.466.26.95.087.603 0 .346.087.087.174 0 .434 4.57 3.037 16.04 9.98 22.94 17.53c.69.78 1.293 1.475 1.897 2.17 4.312 5.12 6.554 8.764 7.503 10.413.086.087.172.174.344.174h.26c.172 0 .258-.087.344-.174a51.467 51.467 0 0 1 4.485-7.81c3.449-5.034 8.796-11.282 16.643-16.229-.258-.087-.43-.174-.69-.174z"/><path d="M26.82 8.244h7.934c1.293 0 2.5.26 3.622.781.086 0 .172.087.259.087.862.434 1.552.955 1.983 1.389.604-.434 1.294-.955 1.984-1.389-1.984-2.083-4.83-3.298-7.848-3.298H18.54c1.294.695 2.587 1.476 3.967 2.344h4.312v.086z"/></g><defs><clipPath id="azclip0"><path d="M0 0h141v44H0z"/></clipPath></defs></symbol><symbol viewBox="0 0 56 54" id="logo--img--office" xmlns="http://www.w3.org/2000/svg"><path d="M49.755 45.376l-.92-.358C53.463 40.062 56 33.684 56 26.989c0-5.482-1.717-10.753-4.845-15.181a.627.627 0 0 0-.142-.19 27.092 27.092 0 0 0-4.879-5.187.907.907 0 0 0-1.246.095.831.831 0 0 0 .098 1.202 26.179 26.179 0 0 1 4.003 4.101c-1.87.706-4.123 1.307-6.628 1.771a29.308 29.308 0 0 0-2.548-5.514c-1.346-2.256-2.899-4.07-4.594-5.408a26.51 26.51 0 0 1 7.437 3.342.902.902 0 0 0 1.225-.232.831.831 0 0 0-.24-1.18C39.025 1.591 33.61 0 28 0 20.519 0 13.486 2.804 8.203 7.907 2.91 13 0 19.778 0 26.99c0 6.706 2.548 13.084 7.175 18.04l-.908.347c-.339.116-3.183 1.212-3.183 4.702v3.057c0 .475.394.855.886.855h13.016c.044 0 .087 0 .12-.011.044.01.088.01.12.01h3.599c.492 0 .886-.38.886-.853 0-.475-.394-.855-.886-.855h-2.712V49.31c0-3.132 2.548-4.028 2.657-4.07.011 0 .022-.01.044-.01l4.31-1.624.032.032 2.286 2.15a.877.877 0 0 0 .613.243h.01a.86.86 0 0 0 .624-.264l2.198-2.193 4.299 1.666c.01.01.022.01.044.01.11.032 2.658.939 2.658 4.07v2.973H23.592c-.492 0-.886.38-.886.854s.394.854.886.854H52.03c.492 0 .886-.39.886-.854V50.1c.01-3.5-2.811-4.596-3.161-4.723zm-3.544-1.37v-.486c.962-.548 1.706-1.412 2.056-2.456 1.29-.095 2.308-1.139 2.308-2.404 0-.748-.36-1.423-.919-1.866v-1.518c0-2.92-2.275-5.335-5.206-5.693.033-.58.055-1.16.066-1.74h9.712c-.208 6.168-2.723 11.998-7.142 16.5l-.875-.338zm-8.072-5.346a.68.68 0 0 1 .34-.59v1.191a.698.698 0 0 1-.34-.6zm-9.56 1.297h-1.017c-2.078 0-3.762-1.623-3.762-3.627v-3.015c1.41-.126 4.2-.6 6.234-2.361.427.78 1.149 1.697 2.297 2.171v3.205c.011 1.993-1.684 3.627-3.751 3.627zm-7.415-4.923c0-.517.372-.95.864-1.065v2.13a1.107 1.107 0 0 1-.864-1.065zm1.17-8.898h-9.067c.077-3.743.624-7.338 1.597-10.606 3.74.6 7.93.948 12.261.99v7.338a7.37 7.37 0 0 0-4.692 2.288c-.033-.01-.066-.01-.099-.01zM11.681 44.09a4.8 4.8 0 0 0 .558.031h.81c.185 0 .371-.01.546-.031v.474l-.984.98-.93-.864v-.59zm1.357-1.666h-.81c-1.564 0-2.833-1.223-2.833-2.73v-2.257c1.149-.116 3.194-.506 4.77-1.77.35.579.896 1.212 1.705 1.58v2.447c0 1.507-1.268 2.73-2.832 2.73zM7.294 38.66a.68.68 0 0 1 .34-.59v1.191a.698.698 0 0 1-.34-.6zm10.347-.569a.692.692 0 0 1 .306.57c0 .231-.12.442-.306.569v-1.14zm-.612-2.267c-.022-.01-.033-.01-.055-.01-.01 0-.01 0-.022-.01-1.236-.275-1.64-1.856-1.64-1.867a.866.866 0 0 0-.69-.643.913.913 0 0 0-.896.337c-1.597 2.13-5.174 2.162-5.218 2.162h-.12c-.022 0-.044 0-.055.01-.01 0-.021.01-.032.01s-.033.011-.044.011c-.011 0-.022.01-.033.01v-.558c0-2.225 1.881-4.038 4.19-4.038h.426c2.307 0 4.189 1.813 4.189 4.038v.548zM1.783 26.136c.164-4.734 1.684-9.141 4.2-12.873 1.99.78 4.419 1.444 7.131 1.971-.995 3.374-1.553 7.074-1.619 10.912H1.783v-.01zm32.003 4.67v1.044c-.011 0-.011-.01-.022-.01a.125.125 0 0 0-.044-.032c-.01-.011-.022-.011-.032-.022-.011-.01-.022-.02-.044-.02-.011-.011-.022-.011-.044-.022-.01-.01-.022-.01-.033-.02-.01-.011-.033-.011-.044-.022-.01 0-.021-.01-.032-.01-.022-.011-.033-.011-.055-.011-.011 0-.011 0-.022-.01-1.684-.37-2.21-2.478-2.22-2.5a.866.866 0 0 0-.69-.642.913.913 0 0 0-.896.337c-2.067 2.762-6.65 2.783-6.705 2.783h-.12c-.022 0-.044 0-.055.01-.01 0-.022.011-.033.011-.01 0-.032.011-.043.011-.011 0-.033.01-.044.01-.011 0-.022.011-.044.011-.01.01-.033.01-.044.021-.01 0-.022.01-.032.01-.011.011-.033.022-.044.032-.011.01-.022.01-.022.01-.011.011-.033.022-.044.033-.01.01-.022.01-.022.02l-.022.022v-1.065c0-2.9 2.45-5.261 5.458-5.261h.525c3.019.021 5.469 2.383 5.469 5.282zM27.114 1.75v13.073c-4.145-.042-8.148-.369-11.714-.928a27.244 27.244 0 0 1 2.319-4.965c2.57-4.302 5.873-6.81 9.395-7.18zm7 32.23c.481.126.831.548.831 1.054s-.35.927-.83 1.054v-2.109zm-.426-7.844c-1.204-1.287-2.899-2.13-4.802-2.278v-7.327c4.342-.042 8.531-.39 12.26-.991.974 3.258 1.521 6.853 1.598 10.596h-9.056zm9.57 5.102h.426c2.308 0 4.19 1.813 4.19 4.038v.548c-.022 0-.033-.01-.055-.01-.011 0-.011 0-.022-.01-1.236-.275-1.64-1.856-1.64-1.867a.866.866 0 0 0-.69-.643.914.914 0 0 0-.897.337c-1.597 2.13-5.173 2.162-5.217 2.162h-.12c-.022 0-.044 0-.055.01-.01 0-.022.01-.044.01-.01 0-.032.011-.043.011-.011 0-.022.01-.033.01v-.558c.01-2.225 1.892-4.038 4.2-4.038zm5.228 6.853a.692.692 0 0 1 .306.57c0 .231-.12.442-.306.569v-1.14zm-8.236-.654c1.148-.116 3.194-.506 4.769-1.77.35.579.897 1.212 1.706 1.58v2.447c0 1.507-1.269 2.73-2.833 2.73h-.81c-1.563 0-2.832-1.223-2.832-2.73v-2.257zm2.275 6.653a5 5 0 0 0 .547.031h.81c.185 0 .371-.01.546-.031v.474l-.984.98-.93-.864v-.59h.011zm7.503-30.838a24.665 24.665 0 0 1 4.19 12.883h-9.713c-.077-3.837-.624-7.538-1.62-10.9 2.724-.528 5.142-1.192 7.143-1.983zM38.281 8.93c.908 1.507 1.674 3.173 2.319 4.965-3.566.56-7.569.886-11.725.928V1.75c3.533.37 6.836 2.878 9.406 7.18zM20.76 2.688c-1.684 1.34-3.237 3.153-4.582 5.398A29.977 29.977 0 0 0 13.64 13.6c-2.505-.474-4.747-1.065-6.617-1.771 3.39-4.344 8.192-7.601 13.737-9.14zM1.783 27.843h9.712c.011.59.033 1.17.066 1.75-2.888.401-5.108 2.794-5.108 5.683v1.508a2.37 2.37 0 0 0-.93 1.876c0 1.276 1.029 2.32 2.33 2.404.35 1.044 1.094 1.908 2.056 2.456v.485l-.962.37c-4.43-4.513-6.945-10.353-7.164-16.532zm9.012 24.428H4.857v-2.203c0-2.373 1.924-3.068 2-3.09.012 0 .034-.01.045-.01l3.336-1.255 1.771 1.666a.877.877 0 0 0 .613.243h.01a.86.86 0 0 0 .624-.264l1.674-1.676 2.067.801c-.394.77-.645 1.708-.645 2.826v2.973h-5.557v-.011zm9.396-8.645c-.602.2-1.422.654-2.155 1.413l-2.68-1.034v-.485c.963-.548 1.707-1.412 2.057-2.456 1.29-.095 2.307-1.139 2.307-2.404 0-.748-.36-1.423-.918-1.866v-1.518c0-3.005-2.407-5.482-5.47-5.725a44.237 44.237 0 0 1-.065-1.718h7.995a6.76 6.76 0 0 0-.689 2.962v1.993a2.763 2.763 0 0 0-1.159 2.246c0 1.528 1.28 2.772 2.866 2.804a5.4 5.4 0 0 0 2.625 3.152v.865l-4.714 1.77zm7.853.327l-1.39-1.297v-1.075c.296.052.602.073.909.073h1.006c.306 0 .612-.02.908-.073v.917l-1.433 1.455zm7.787-.317l-4.572-1.77v-.876a5.4 5.4 0 0 0 2.625-3.152c1.564-.042 2.822-1.276 2.822-2.794 0-.907-.448-1.718-1.148-2.235v-1.992a6.726 6.726 0 0 0-.69-2.963h7.876a45.32 45.32 0 0 1-.066 1.729c-3.008.285-5.37 2.741-5.37 5.714v1.508a2.37 2.37 0 0 0-.93 1.876c0 1.276 1.028 2.32 2.33 2.404.35 1.044 1.094 1.908 2.056 2.457v.485l-2.767 1.043c-.744-.78-1.564-1.244-2.166-1.434zm15.335 8.635H39.67v-2.973c0-1.118-.252-2.045-.646-2.815l2.067-.78 1.772 1.666a.877.877 0 0 0 .613.242h.01a.86.86 0 0 0 .624-.264l1.673-1.676 3.325 1.286c.011.011.022.011.044.011.088.032 2.013.717 2.013 3.089v2.214z"/></symbol><symbol viewBox="0 0 55 43" id="logo--img--partners" xmlns="http://www.w3.org/2000/svg"><g clip-path="url(#bbclip0)"><path d="M43.872 8.151a1.023 1.023 0 0 0 0-1.475 1.09 1.09 0 0 0-1.515 0 1.023 1.023 0 0 0 0 1.475 1.09 1.09 0 0 0 1.515 0zm-29.856 2.164a1.023 1.023 0 0 0 0-1.475 1.09 1.09 0 0 0-1.514 0 1.023 1.023 0 0 0 0 1.475 1.09 1.09 0 0 0 1.514 0zm-6.324 6.028l3.212-3.128a1.023 1.023 0 0 0 0-1.475 1.09 1.09 0 0 0-1.515 0l-3.212 3.128a1.023 1.023 0 0 0 0 1.475 1.09 1.09 0 0 0 1.515 0zm39.725-3.034a1.09 1.09 0 0 0 1.514 0 1.023 1.023 0 0 0 0-1.476l-2.137-2.082a1.09 1.09 0 0 0-1.515 0 1.023 1.023 0 0 0 0 1.476l2.138 2.082z"/><path d="M54.686 12.145L42.526.302A1.094 1.094 0 0 0 41.033.28c-.946.868-5.382 4.938-5.447 4.99l-.01.011c-1.053 1.025-2.084 1.475-3.352 1.475-2.589 0-4.576.712-6.23 2.24-1.354-1.246-2.89-1.895-5.028-2.114l-5.37-5.231a1.09 1.09 0 0 0-1.515 0L.309 15.075a1.026 1.026 0 0 0-.021 1.454c.01.01.01.02.021.02l8.97 8.726-.376.367a3.59 3.59 0 0 0 0 5.178 3.79 3.79 0 0 0 2.696 1.067 3.585 3.585 0 0 0 1.096 2.627 3.81 3.81 0 0 0 2.696 1.067 3.585 3.585 0 0 0 1.096 2.626 3.79 3.79 0 0 0 2.696 1.067A3.585 3.585 0 0 0 20.28 41.9c1.46 1.423 3.846 1.423 5.317 0l.376-.366.376.366c1.461 1.423 3.846 1.423 5.318 0a3.637 3.637 0 0 0 1.106-2.626 3.8 3.8 0 0 0 2.696-1.067 3.594 3.594 0 0 0 1.096-2.626 3.79 3.79 0 0 0 2.696-1.067 3.52 3.52 0 0 0 1.096-2.627 3.784 3.784 0 0 0 2.696-1.067 3.59 3.59 0 0 0 0-5.178l-.376-.367c7.488-7.281-1.987 1.946 11.978-11.655a.997.997 0 0 0 .032-1.475zm-52.1 3.662L14.832 3.88l4.125 4.018L6.711 19.825l-4.125-4.018zm7.832 13.538a1.531 1.531 0 0 1 0-2.218l3.802-3.703a1.652 1.652 0 0 1 2.278 0c.633.617.633 1.6 0 2.218l-3.792 3.693a1.655 1.655 0 0 1-2.288.01zm3.802 3.693a1.531 1.531 0 0 1 0-2.218l3.803-3.703a1.632 1.632 0 0 1 2.277 0 1.54 1.54 0 0 1 0 2.218l-3.802 3.703a1.632 1.632 0 0 1-2.278 0zm3.803 3.704a1.531 1.531 0 0 1 0-2.218l3.803-3.704a1.652 1.652 0 0 1 2.277 0 1.54 1.54 0 0 1 0 2.218L20.3 36.742a1.652 1.652 0 0 1-2.277 0zm3.792 3.693a1.531 1.531 0 0 1 0-2.218l3.803-3.703a1.632 1.632 0 0 1 2.277 0 1.54 1.54 0 0 1 0 2.218l-3.803 3.703a1.632 1.632 0 0 1-2.277 0zm8.357 0a1.652 1.652 0 0 1-2.277 0l-.376-.366 1.901-1.852a4.11 4.11 0 0 0 .355-.397l.408.397a1.54 1.54 0 0 1-.01 2.218zm11.398-11.09a1.652 1.652 0 0 1-2.278 0l-4.94-4.812a1.09 1.09 0 0 0-1.516 0 1.023 1.023 0 0 0 0 1.475l4.942 4.812a1.531 1.531 0 0 1 0 2.218 1.642 1.642 0 0 1-2.277 0l-4.942-4.812a1.09 1.09 0 0 0-1.515 0 1.023 1.023 0 0 0 0 1.475l4.942 4.813a1.55 1.55 0 0 1 0 2.218c-.3.293-.71.46-1.139.46-1.02 0-1.353-.785-2.32-1.611a3.601 3.601 0 0 0-1.096-2.553 3.836 3.836 0 0 0-2.696-1.078 3.585 3.585 0 0 0-1.096-2.626 3.794 3.794 0 0 0-2.696-1.067c.021-2.06-1.697-3.724-3.803-3.704a3.56 3.56 0 0 0-1.106-2.626c-1.461-1.422-3.846-1.422-5.318 0l-1.901 1.852-2.557-2.49L20.88 8.996c1.569.178 2.622.617 3.588 1.486l-3.04 2.95a4.116 4.116 0 0 0 0 5.922c1.676 1.632 4.404 1.632 6.08 0l3.04-2.961L41.56 27.117c.634.617.634 1.61.01 2.228zm-.387-5.555l-9.12-8.883.763-.743a1.023 1.023 0 0 0 0-1.475 1.09 1.09 0 0 0-1.515 0l-5.317 5.19a2.194 2.194 0 0 1-3.04 0 2.058 2.058 0 0 1 0-2.961l4.372-4.258c1.278-1.245 2.793-1.8 4.898-1.8 1.515 0 2.836-.45 4.06-1.391l10.7 10.692c-6.993 6.79-5.618 5.45-5.8 5.629zm7.316-7.104L37.864 6.066l3.878-3.557 10.656 10.379-3.9 3.798z"/></g><defs><clipPath id="bbclip0"><path d="M0 0h55v43H0z"/></clipPath></defs></symbol><symbol viewBox="0 0 58 54" id="logo--img--rasco" xmlns="http://www.w3.org/2000/svg"><path d="M57.033 52.033h-5.8V22.428c0-.494-.435-.897-.966-.897H36.733V.897c0-.493-.435-.897-.966-.897H10.633c-.531 0-.966.404-.966.897v51.136h-8.7c-.532 0-.967.403-.967.897 0 .493.435.897.967.897h56.066c.532 0 .967-.404.967-.897 0-.494-.435-.897-.967-.897zM11.6 1.794h23.2v19.737h-9.667c-.531 0-.966.403-.966.897v29.605h-1.934v-8.075c0-1.49-1.293-2.69-2.9-2.69H17.4c-1.607 0-2.9 1.2-2.9 2.69v8.075h-2.9V1.794zm4.833 50.239v-8.075c0-.493.435-.897.967-.897h1.933c.532 0 .967.404.967.898v8.074h-3.867zm9.667 0V23.325h23.2v28.708H26.1z"/><path d="M25.134 19.736h5.8c.531 0 .966-.403.966-.897v-5.382c0-.494-.435-.897-.966-.897h-5.8c-.532 0-.967.403-.967.897v5.382c0 .494.435.897.967.897zm.966-5.382h3.867v3.588H26.1v-3.588zm-.966-3.588h5.8c.531 0 .966-.404.966-.897V4.486c0-.493-.435-.897-.966-.897h-5.8c-.532 0-.967.404-.967.897v5.383c0 .493.435.897.967.897zm.966-5.383h3.867v3.589H26.1V5.383zM15.467 19.736h5.8c.531 0 .966-.403.966-.897v-5.382c0-.494-.435-.897-.966-.897h-5.8c-.532 0-.967.403-.967.897v5.382c0 .494.435.897.967.897zm.966-5.382H20.3v3.588h-3.867v-3.588zm-.966-3.588h5.8c.531 0 .966-.404.966-.897V4.486c0-.493-.435-.897-.966-.897h-5.8c-.532 0-.967.404-.967.897v5.383c0 .493.435.897.967.897zm.966-5.383H20.3v3.589h-3.867V5.383zm-.966 23.324h5.8c.531 0 .966-.403.966-.897v-5.383c0-.493-.435-.897-.966-.897h-5.8c-.532 0-.967.404-.967.897v5.383c0 .494.435.897.967.897zm.966-5.383H20.3v3.589h-3.867v-3.588zm-.966 14.356h5.8c.531 0 .966-.405.966-.898v-5.383c0-.493-.435-.897-.966-.897h-5.8c-.532 0-.967.404-.967.897v5.383c0 .493.435.897.967.897zm.966-5.384H20.3v3.589h-3.867v-3.589zm29.001 1.794h-5.8c-.532 0-.967.404-.967.898v5.382c0 .494.435.898.967.898h5.8c.531 0 .966-.404.966-.898v-5.382c0-.493-.435-.897-.966-.897zm-.967 5.383H40.6v-3.588h3.867v3.588zm.967-14.353h-5.8c-.532 0-.967.403-.967.896V31.4c0 .494.435.897.967.897h5.8c.531 0 .966-.403.966-.897v-5.383c0-.493-.435-.897-.966-.897zm-.967 5.382H40.6v-3.589h3.867v3.589zm.967 12.56h-5.8c-.532 0-.967.403-.967.897v5.383c0 .493.435.897.967.897h5.8c.531 0 .966-.404.966-.897v-5.383c0-.494-.435-.898-.966-.898zm-.967 5.382H40.6v-3.588h3.867v3.588zm-8.7-14.354h-5.8c-.532 0-.967.404-.967.898v5.382c0 .494.435.898.967.898h5.8c.531 0 .966-.404.966-.898v-5.382c0-.493-.435-.897-.966-.897zm-.967 5.383h-3.867v-3.588H34.8v3.588zm.967-14.353h-5.8c-.532 0-.967.403-.967.896V31.4c0 .494.435.897.967.897h5.8c.531 0 .966-.403.966-.897v-5.383c0-.493-.435-.897-.966-.897zm-.967 5.382h-3.867v-3.589H34.8v3.589zm.967 12.56h-5.8c-.532 0-.967.403-.967.897v5.383c0 .493.435.897.967.897h5.8c.531 0 .966-.404.966-.897v-5.383c0-.494-.435-.898-.966-.898zm-.967 5.382h-3.867v-3.588H34.8v3.588z"/></symbol><symbol viewBox="0 0 40 53" id="logo--img--requisites" xmlns="http://www.w3.org/2000/svg"><path d="M40 10.724c0-.32-.125-.631-.365-.87L30.07.363A1.248 1.248 0 0 0 29.185 0H2.625A2.62 2.62 0 0 0 0 2.609V50.38A2.622 2.622 0 0 0 2.626 53h34.738a2.62 2.62 0 0 0 2.626-2.609V10.745c.01-.01.01-.01.01-.02zm-9.43-1.221a.137.137 0 0 1-.135-.135V4.234l5.304 5.269H30.57zm6.804 41.013H2.626a.137.137 0 0 1-.136-.135V2.61c0-.073.063-.135.136-.135h25.308v6.884a2.62 2.62 0 0 0 2.626 2.608h6.929v38.405c.01.093-.042.145-.115.145z"/><path d="M31.05 16.977H8.95a1.25 1.25 0 0 0-1.25 1.242 1.25 1.25 0 0 0 1.25 1.242h22.1a1.25 1.25 0 0 0 1.25-1.242c0-.684-.553-1.242-1.25-1.242zm0 7.493H8.95a1.25 1.25 0 0 0-1.25 1.243 1.25 1.25 0 0 0 1.25 1.242h22.1a1.25 1.25 0 0 0 1.25-1.242c0-.694-.553-1.242-1.25-1.242zm0 7.485H8.95a1.25 1.25 0 0 0-1.25 1.242 1.25 1.25 0 0 0 1.25 1.242h22.1a1.25 1.25 0 0 0 1.25-1.242c0-.683-.553-1.242-1.25-1.242zM20.005 39.44H8.95a1.25 1.25 0 0 0-1.25 1.242 1.25 1.25 0 0 0 1.25 1.242h11.055a1.25 1.25 0 0 0 1.25-1.242 1.257 1.257 0 0 0-1.25-1.242z"/></symbol><symbol viewBox="0 0 48 48" id="logo--img--telephony" xmlns="http://www.w3.org/2000/svg"><g clip-path="url(#beclip0)"><path d="M37.956 29.737c-.99-1.026-2.169-1.57-3.424-1.57-1.243 0-2.448.531-3.475 1.557l-3.208 3.192c-.267-.14-.533-.279-.787-.405a12 12 0 0 1-1.001-.532c-3.006-1.9-5.732-4.382-8.345-7.6-1.268-1.595-2.118-2.95-2.74-4.318.838-.76 1.599-1.545 2.36-2.305.279-.279.57-.583.85-.861 2.13-2.128 2.13-4.889 0-7.017l-2.765-2.76a33.586 33.586 0 0 1-.939-.963 44.577 44.577 0 0 0-1.902-1.887c-1.002-.975-2.18-1.495-3.41-1.495-1.243 0-2.435.52-3.45 1.495l-.025.025-3.45 3.47C.939 9.055.204 10.638.039 12.475c-.241 2.963.634 5.712 1.293 7.523 1.65 4.432 4.097 8.536 7.762 12.93 4.438 5.294 9.79 9.487 15.902 12.438 2.334 1.101 5.453 2.406 8.928 2.634.216.013.431.025.634.025 2.346 0 4.312-.836 5.86-2.508.012-.025.025-.025.037-.05.533-.633 1.142-1.216 1.776-1.837.43-.418.888-.848 1.319-1.304 1.002-1.039 1.534-2.254 1.534-3.508s-.532-2.457-1.56-3.47l-5.567-5.611zm3.627 10.664c-.013 0-.013.013 0 0-.393.43-.799.81-1.243 1.241-.66.633-1.331 1.292-1.953 2.026-1.027 1.09-2.232 1.609-3.817 1.609-.152 0-.317 0-.47-.013-3.017-.19-5.807-1.368-7.913-2.368-5.744-2.774-10.779-6.712-14.977-11.715-3.449-4.154-5.757-8.004-7.291-12.146-.939-2.52-1.294-4.483-1.142-6.345.102-1.19.558-2.166 1.395-3.014l3.462-3.458c.495-.468 1.027-.722 1.547-.722.634 0 1.154.38 1.484.71l.026.025c.62.583 1.204 1.178 1.826 1.811.317.33.634.646.963.988l2.765 2.76c1.078 1.077 1.078 2.065 0 3.142l-.875.874c-.85.874-1.661 1.684-2.549 2.47-.025.025-.038.025-.05.05-.876.874-.71 1.722-.533 2.305l.025.089c.723 1.747 1.737 3.381 3.272 5.344l.013.013c2.802 3.445 5.757 6.13 9.004 8.181.418.266.837.482 1.242.684.368.178.71.355 1.002.532a2.137 2.137 0 0 0 1.129.33c.837 0 1.37-.532 1.547-.697l3.475-3.47c.342-.342.887-.76 1.534-.76.634 0 1.142.393 1.459.734l5.605 5.598c1.078 1.064 1.078 2.128.038 3.192zM25.947 11.424c2.663.443 5.072 1.697 7 3.622a12.885 12.885 0 0 1 3.627 6.991 1.36 1.36 0 0 0 1.344 1.14c.076 0 .152-.012.229-.025a1.385 1.385 0 0 0 1.128-1.583 15.587 15.587 0 0 0-4.388-8.46 15.62 15.62 0 0 0-8.471-4.383 1.384 1.384 0 0 0-1.585 1.115 1.364 1.364 0 0 0 1.116 1.583zm22.027 9.752c-.9-5.294-3.398-10.107-7.228-13.932-3.83-3.825-8.649-6.32-13.95-7.219a1.372 1.372 0 0 0-1.572 1.115 1.382 1.382 0 0 0 1.128 1.583c4.73.798 9.042 3.04 12.466 6.459 3.424 3.42 5.656 7.726 6.468 12.45a1.36 1.36 0 0 0 1.344 1.14c.076 0 .152-.013.228-.026.749-.127 1.256-.836 1.116-1.57z"/></g><defs><clipPath id="beclip0"><path d="M0 0h48v48H0z"/></clipPath></defs></symbol><symbol viewBox="0 0 52 52" id="logo--img--tv_package" xmlns="http://www.w3.org/2000/svg"><path d="M49.215 7.893H2.786V35.75h46.429V7.893zm-44.3 7.7l4.643-4.643a.929.929 0 0 1 1.313 1.313l-4.643 4.643a.929.929 0 0 1-1.313-1.313zm2.242 5.027l-.929.93a.929.929 0 0 1-1.313-1.314l.929-.928a.929.929 0 0 1 1.313 1.313zm8.357-8.357l-6.5 6.5a.929.929 0 0 1-1.313-1.313l6.5-6.5a.929.929 0 0 1 1.313 1.313z"/><path d="M.929 38.536H51.07a.929.929 0 0 0 .929-.929V6.036a.929.929 0 0 0-.929-.929H.93a.929.929 0 0 0-.93.929v31.571a.93.93 0 0 0 .929.929zm0-31.571c0-.513.415-.929.928-.929h48.286c.513 0 .928.416.928.929v29.714a.928.928 0 0 1-.928.928H1.857a.929.929 0 0 1-.928-.928V6.965zM41.786 42.25v-1.857h-1.858v1.857H12.071v-1.857h-1.857v1.857a4.648 4.648 0 0 0-4.643 4.643h1.857a2.786 2.786 0 0 1 2.786-2.786h31.572a2.786 2.786 0 0 1 2.785 2.786h1.857a4.648 4.648 0 0 0-4.642-4.643z"/><path d="M20.537 17.04V29h-2.26V17.04h-4.16v-2h10.58v2h-4.16zm6.363-2h6.18c1.16 0 2.066.327 2.72.98.666.653 1 1.527 1 2.62 0 .52-.074.967-.22 1.34a2.89 2.89 0 0 1-.56.9c-.227.227-.487.4-.78.52a3.48 3.48 0 0 1-.86.2v.12c.28.013.586.08.92.2.346.12.666.313.96.58.293.253.54.587.74 1 .2.4.3.893.3 1.48a4.44 4.44 0 0 1-.28 1.58c-.174.493-.42.92-.74 1.28s-.7.647-1.14.86c-.44.2-.92.3-1.44.3h-6.8V15.04zm2.26 12.02h3.88c.586 0 1.046-.153 1.38-.46.333-.307.5-.747.5-1.32v-.68c0-.573-.167-1.013-.5-1.32-.334-.307-.794-.46-1.38-.46h-3.88v4.24zm0-6.12h3.5c.56 0 .993-.14 1.3-.42.306-.293.46-.707.46-1.24v-.64c0-.533-.154-.94-.46-1.22-.307-.293-.74-.44-1.3-.44h-3.5v3.96z"/></symbol><symbol viewBox="0 0 80 80" id="logo--img--wi-fi" xmlns="http://www.w3.org/2000/svg"><circle cx="40" cy="40" r="40"/><g clip-path="url(#bgclip0)"><path d="M40 51.402a4.202 4.202 0 0 0-4.2 4.2 4.201 4.201 0 1 0 4.2-4.2zm22.508-14.687C56.89 30.03 48.686 26.197 40 26.197S23.112 30.03 17.492 36.715a2.099 2.099 0 0 0 1.607 3.451 2.1 2.1 0 0 0 1.61-.749c4.817-5.731 11.849-9.019 19.29-9.019 7.443 0 14.475 3.288 19.292 9.018a2.099 2.099 0 0 0 2.96.256 2.098 2.098 0 0 0 .257-2.957zM40 34.599c-6.205 0-12.063 2.737-16.076 7.51a2.099 2.099 0 0 0 1.607 3.452c.6 0 1.195-.255 1.61-.749A16.766 16.766 0 0 1 40 38.8c4.96 0 9.648 2.19 12.86 6.012a2.094 2.094 0 0 0 2.959.256 2.1 2.1 0 0 0 .258-2.958c-4.015-4.774-9.873-7.511-16.078-7.511zM40 43c-3.725 0-7.24 1.643-9.646 4.506a2.099 2.099 0 0 0 1.607 3.452c.6 0 1.195-.255 1.61-.75A8.387 8.387 0 0 1 40 47.202a8.386 8.386 0 0 1 6.43 3.008c.416.495 1.01.749 1.609.749a2.099 2.099 0 0 0 1.607-3.452A12.576 12.576 0 0 0 40 43z"/></g><defs><clipPath id="bgclip0"><path transform="translate(17 20)" d="M0 0h46v46H0z"/></clipPath></defs></symbol></svg>