<svg xmlns="http://www.w3.org/2000/svg" style="display:none"><symbol id="baseline-close" viewBox="0 0 24 24">
<path d="M19 6.41L17.59 5L12 10.59L6.41 5L5 6.41L10.59 12L5 17.59L6.41 19L12 13.41L17.59 19L19 17.59L13.41 12L19 6.41Z"/>
</symbol><symbol id="burger" viewBox="0 0 24 16">
<path d="M0 16H24V13.3333H0V16ZM0 9.33333H24V6.66667H0V9.33333ZM0 0V2.66667H24V0H0Z"/>
</symbol><symbol id="enter" viewBox="0 0 16 16">
<path d="M5.5 8H0.5V6H5.5V4L8.5 7L5.5 10V8ZM15.5 0V13L9.5 16V13H3.5V9H4.5V12H9.5V3L13.5 1H4.5V5H3.5V0H15.5Z"/>
</symbol><symbol id="help" viewBox="0 0 20 20">
<path d="M10.4211 2C5.77263 2 2 5.77263 2 10.4211C2 15.0695 5.77263 18.8421 10.4211 18.8421C15.0695 18.8421 18.8421 15.0695 18.8421 10.4211C18.8421 5.77263 15.0695 2 10.4211 2ZM11.2632 16.3158H9.57895V14.6316H11.2632V16.3158ZM13.0063 9.78947L12.2484 10.5642C11.6421 11.1789 11.2632 11.6842 11.2632 12.9474H9.57895V12.5263C9.57895 11.6 9.95789 10.7579 10.5642 10.1432L11.6084 9.08211C11.92 8.77895 12.1053 8.35789 12.1053 7.89474C12.1053 6.96842 11.3474 6.21053 10.4211 6.21053C9.49474 6.21053 8.73684 6.96842 8.73684 7.89474H7.05263C7.05263 6.03368 8.56 4.52632 10.4211 4.52632C12.2821 4.52632 13.7895 6.03368 13.7895 7.89474C13.7895 8.63579 13.4863 9.30947 13.0063 9.78947Z"/>
</symbol><symbol id="logo" viewBox="0 0 120 37">
<path d="M7.86637 9.72998C7.14802 11.0343 6.75293 12.5149 6.75293 14.1013V27.2153C6.75293 32.3269 10.9553 36.4867 16.1633 36.4867H17.7437C18.3183 32.9967 19.324 29.683 20.7607 26.5807C17.4922 20.2 13.1103 14.5243 7.86637 9.72998Z"/>
<path d="M58.725 28.4136H54.8818V29.2596H56.2826V34.7943H57.2883V29.2596H58.725V28.4136Z"/>
<path d="M60.1252 29.7886C59.5864 29.7886 59.1554 30.0001 58.8322 30.4231C58.5448 30.8462 58.3652 31.516 58.3652 32.3973C58.3652 34.0894 59.0117 34.9355 60.2689 34.9355C60.5203 34.9355 60.7717 34.9002 60.9513 34.8297C61.1309 34.7592 61.2745 34.6887 61.3823 34.6534L61.4182 34.6182L61.2386 33.8074L61.1309 33.8779C60.8795 34.0189 60.628 34.0894 60.4125 34.0894C60.197 34.0894 60.0174 34.0541 59.8738 33.9836C59.5505 33.8074 59.3709 33.3843 59.3709 32.7145H61.6337V32.644C61.6337 32.5735 61.6337 32.503 61.6337 32.4325V32.221C61.6337 31.4807 61.526 30.9167 61.2745 30.4936C61.059 30.0001 60.6639 29.7886 60.1252 29.7886ZM60.0893 30.6346C60.3048 30.6346 60.4484 30.7404 60.5203 30.9519C60.5921 31.1634 60.628 31.4807 60.6639 31.8685H59.4068C59.4428 31.516 59.5146 31.1987 59.6223 30.9872C59.6942 30.7404 59.8738 30.6346 60.0893 30.6346Z"/>
<path d="M63.0708 30.9874C63.0708 32.0802 62.999 32.8205 62.8194 33.2788C62.7475 33.4903 62.6398 33.6666 62.4961 33.8076C62.3884 33.9133 62.1729 34.0191 61.9574 34.0543H61.8496L61.9574 34.9004H62.0292C62.3884 34.9004 62.7116 34.7946 62.9631 34.6184C63.6814 34.1248 64.0406 32.9615 64.0406 31.1284V30.7406H64.8308V34.7946H65.8005V29.8945H63.0708V30.9874Z"/>
<path d="M68.423 29.7886C67.8843 29.7886 67.4533 30.0001 67.13 30.4231C66.8427 30.8462 66.6631 31.516 66.6631 32.3973C66.6631 34.0894 67.3096 34.9355 68.5667 34.9355C68.8181 34.9355 69.0695 34.9002 69.2491 34.8297C69.4287 34.7592 69.5724 34.6887 69.6801 34.6534L69.7161 34.6182L69.5365 33.8074L69.4287 33.8779C69.1773 34.0189 68.9259 34.0894 68.7104 34.0894C68.4949 34.0894 68.3153 34.0541 68.1716 33.9836C67.8484 33.8074 67.6688 33.3843 67.6688 32.7145H69.9316V32.644C69.9316 32.5735 69.9316 32.503 69.9316 32.4325V32.221C69.9316 31.4807 69.8238 30.9167 69.5724 30.4936C69.3569 30.0001 68.9618 29.7886 68.423 29.7886ZM68.3871 30.6346C68.6026 30.6346 68.7463 30.7404 68.8181 30.9519C68.89 31.1634 68.9259 31.4807 68.9618 31.8685H67.7047C67.7406 31.516 67.8124 31.1987 67.9202 30.9872C67.992 30.7404 68.1357 30.6346 68.3871 30.6346Z"/>
<path d="M73.8103 34.0191C73.4152 33.314 73.0201 32.6795 72.5531 32.1507C72.9842 31.5867 73.4511 30.8816 73.9539 30.0355L74.0258 29.8945H72.9842L72.9482 29.9298C72.8764 30.0708 72.7327 30.3176 72.4813 30.7053C72.3017 31.0226 72.0503 31.3399 71.7989 31.7277V29.8945H70.8291V34.7946H71.7989V32.6442C71.8707 32.7147 71.9425 32.8205 72.0144 32.9263C72.4813 33.5961 72.8405 34.1954 73.1278 34.7594L73.1637 34.8299H74.2054L74.1335 34.6889C74.0258 34.4774 73.918 34.2659 73.8103 34.0191Z"/>
<path d="M76.0012 29.7886C75.7138 29.7886 75.4265 29.8591 75.211 29.9648C74.5645 30.3174 74.2412 31.1282 74.2412 32.3268C74.2412 33.1023 74.3849 33.7369 74.6722 34.1599C74.9955 34.6534 75.4265 34.9002 76.0371 34.9002C76.6118 34.9002 77.0787 34.6534 77.366 34.1599C77.5097 33.9484 77.6174 33.6664 77.6893 33.3491C77.7611 33.0318 77.797 32.7145 77.797 32.3268C77.797 31.5512 77.6534 30.9167 77.366 30.4936C77.0428 30.0353 76.6118 29.7886 76.0012 29.7886ZM76.0012 30.6699C76.504 30.6699 76.7554 31.2339 76.7554 32.362C76.7554 33.4901 76.504 34.0541 76.0012 34.0541C75.4983 34.0541 75.2469 33.4901 75.2469 32.362C75.2469 31.2339 75.4983 30.6699 76.0012 30.6699Z"/>
<path d="M82.6467 30.0002V29.9297H81.641L81.6051 30.0002C81.2818 30.7757 80.9945 31.6923 80.6712 32.7146C80.3839 31.7276 80.0606 30.811 79.7374 30.0002L79.7014 29.9297H78.6958V30.0002C78.5521 31.7981 78.4443 33.3844 78.4443 34.724V34.8298H79.3782V34.724C79.3782 34.4773 79.3782 34.019 79.3782 33.3139C79.3782 32.7146 79.4141 32.0801 79.45 31.4455C79.5219 31.6571 79.5937 31.9038 79.7014 32.2211C79.881 32.8204 80.0965 33.455 80.2402 34.1248V34.1953H80.9945L81.0304 34.1248C81.3536 32.9614 81.6051 32.0801 81.8206 31.4455C81.8565 31.8686 81.8565 32.3621 81.8565 32.8909C81.8565 33.2434 81.8565 33.5607 81.8565 33.878C81.8565 34.1953 81.8565 34.4773 81.8565 34.724V34.8298H82.7903V34.724C82.8622 32.9614 82.7544 31.375 82.6467 30.0002Z"/>
<path d="M85.8066 34.7943H86.8123V29.2596H88.6082V34.7943H89.6139V28.4136H85.8066V34.7943Z"/>
<path d="M92.1281 29.7886C91.5894 29.7886 91.1583 30.0001 90.8351 30.4231C90.5477 30.8462 90.3682 31.516 90.3682 32.3973C90.3682 34.0894 91.0147 34.9355 92.2718 34.9355C92.5232 34.9355 92.7746 34.9002 92.9542 34.8297C93.1338 34.7592 93.2775 34.6887 93.3852 34.6534L93.4211 34.6182L93.2415 33.8074L93.1338 33.8779C92.8824 34.0189 92.6309 34.0894 92.4154 34.0894C92.1999 34.0894 92.0204 34.0541 91.8767 33.9836C91.5534 33.8074 91.3738 33.3843 91.3738 32.7145H93.6366V32.644C93.6366 32.5735 93.6366 32.503 93.6366 32.4325V32.221C93.6366 31.4807 93.5289 30.9167 93.2775 30.4936C93.062 30.0001 92.6669 29.7886 92.1281 29.7886ZM92.0922 30.6346C92.3077 30.6346 92.4514 30.7404 92.5232 30.9519C92.595 31.1634 92.631 31.4807 92.6669 31.8685H91.4098C91.4457 31.516 91.5175 31.1987 91.6253 30.9872C91.6971 30.7404 91.8408 30.6346 92.0922 30.6346Z"/>
<path d="M93.9238 30.7758H95.145V34.7946H96.1148V30.7758H97.3001V29.8945H93.9238V30.7758Z"/>
<path d="M99.2756 29.7886C98.7368 29.7886 98.3058 30.0001 97.9825 30.4231C97.6952 30.8462 97.5156 31.516 97.5156 32.3973C97.5156 34.0894 98.1621 34.9355 99.4192 34.9355C99.6707 34.9355 99.9221 34.9002 100.102 34.8297C100.281 34.7592 100.425 34.6887 100.533 34.6534L100.569 34.6182L100.389 33.8074L100.281 33.8779C99.7784 34.1246 99.2756 34.1246 99.0242 33.9836C98.7009 33.8074 98.5213 33.3843 98.5213 32.7145H100.712H100.784V32.644C100.784 32.5735 100.784 32.503 100.784 32.4325V32.221C100.784 31.4807 100.676 30.9167 100.425 30.4936C100.209 30.0001 99.8143 29.7886 99.2756 29.7886ZM99.2397 30.6346C99.4552 30.6346 99.5988 30.7404 99.6707 30.9519C99.7425 31.1634 99.7784 31.4807 99.8143 31.8685H98.5572C98.5931 31.4807 98.665 31.1987 98.7727 30.9872C98.8446 30.7404 98.9882 30.6346 99.2397 30.6346Z"/>
<path d="M103.981 29.9648C103.729 29.8591 103.406 29.7886 102.975 29.7886C102.58 29.7886 102.185 29.8591 101.79 30.0353L101.718 30.0706V36.4866H102.688V34.8297C102.867 34.9002 103.083 34.9355 103.262 34.9355C103.873 34.9355 104.34 34.7239 104.591 34.2657C104.843 33.8426 104.986 33.2081 104.986 32.3973C104.986 31.5865 104.843 30.9519 104.519 30.5289C104.448 30.2821 104.232 30.1058 103.981 29.9648ZM104.052 32.362C104.052 32.9966 103.981 33.4548 103.801 33.7016C103.729 33.8074 103.621 33.9131 103.55 33.9484C103.334 34.0541 103.011 34.0894 102.723 33.9131V30.6699C102.831 30.6346 102.975 30.6346 103.083 30.6346C103.406 30.6346 103.657 30.7404 103.801 31.0224C103.981 31.3044 104.052 31.7275 104.052 32.362Z"/>
<path d="M107.501 30.2469C107.214 30.2469 106.926 30.2821 106.711 30.3879C106.747 30.2469 106.747 30.1059 106.783 30.0001C106.89 29.3656 107.214 28.9778 107.681 28.8015C107.86 28.731 108.004 28.6958 108.219 28.6605L108.902 28.5195L108.758 27.6382L108.004 27.7792C107.752 27.8144 107.501 27.885 107.285 27.9907C107.034 28.0965 106.819 28.2375 106.567 28.449C106.352 28.6605 106.172 28.9425 106.028 29.2951C105.885 29.6476 105.777 30.0706 105.741 30.5642C105.705 30.7757 105.705 30.9872 105.705 31.234C105.705 31.4455 105.705 31.7275 105.705 32.0448C105.705 32.362 105.741 32.7146 105.777 33.0671C105.957 34.2657 106.531 34.9002 107.465 34.9002C108.04 34.9002 108.471 34.6887 108.758 34.2304C109.045 33.8074 109.153 33.2081 109.153 32.4678C109.153 31.6922 109.009 31.1282 108.722 30.7757C108.399 30.4231 108.004 30.2469 107.501 30.2469ZM107.932 33.7369C107.824 33.9484 107.681 34.0542 107.465 34.0542C107.142 34.0542 106.962 33.8779 106.854 33.5254C106.747 33.1376 106.675 32.6088 106.675 31.9038V31.5865C106.675 31.4807 106.675 31.4102 106.675 31.3045C106.89 31.1634 107.142 31.0577 107.393 31.0577C107.645 31.0577 107.824 31.1634 107.932 31.4102C108.04 31.657 108.112 32.0448 108.112 32.5736C108.112 33.1376 108.04 33.5254 107.932 33.7369Z"/>
<path d="M112.026 30.0002C111.775 31.1988 111.523 32.3621 111.2 33.4197C111.128 33.1729 111.02 32.7851 110.913 32.3269C110.733 31.6571 110.589 30.8463 110.446 30.0002V29.9297H109.44L109.476 30.0354C109.835 31.8686 110.302 33.4549 110.769 34.7945L110.697 34.9708C110.589 35.2176 110.482 35.3938 110.41 35.4996C110.23 35.7111 109.907 35.6759 109.655 35.5701L109.548 35.5349L109.368 36.3457L109.44 36.3809C109.656 36.4867 109.871 36.5219 110.087 36.5219C110.482 36.5219 110.841 36.3809 111.092 36.0989C111.308 35.8521 111.559 35.3586 111.811 34.6535C112.385 32.9614 112.816 31.4103 113.104 30.0354L113.139 29.9297H112.17L112.026 30.0002Z"/>
<path d="M115.833 29.9648C115.582 29.8591 115.258 29.7886 114.827 29.7886C114.432 29.7886 114.001 29.8591 113.642 30.0353L113.57 30.0706V36.4866H114.54V34.8297C114.72 34.9002 114.935 34.9355 115.115 34.9355C115.725 34.9355 116.192 34.7239 116.48 34.2657C116.731 33.8426 116.875 33.2081 116.875 32.3973C116.875 31.5865 116.731 30.9519 116.408 30.5289C116.3 30.2821 116.085 30.1058 115.833 29.9648ZM115.905 32.362C115.905 32.9966 115.833 33.4548 115.654 33.7016C115.582 33.8074 115.474 33.9131 115.402 33.9484C115.222 34.0541 114.863 34.0894 114.576 33.9131V30.6699C114.684 30.6346 114.827 30.6346 114.935 30.6346C115.258 30.6346 115.51 30.7404 115.654 31.0224C115.833 31.3044 115.905 31.7275 115.905 32.362Z"/>
<path d="M117.63 29.8945V34.7946H118.6V30.7758H120V29.8945H117.63Z"/>
<path d="M66.2319 6.62754C65.6213 6.62754 65.0826 6.76855 65.0467 6.76855L64.9389 6.8038V15.0882C64.6875 15.2997 63.3586 16.2515 60.4852 16.2515C58.2942 16.2515 57.504 15.5817 57.504 13.7486V6.76855L57.3963 6.7333C57.3604 6.7333 56.8575 6.59229 56.211 6.59229C55.6363 6.59229 55.0616 6.7333 55.0257 6.7333L54.918 6.76855V13.7133C54.918 16.6745 56.4983 18.0494 59.8387 18.0494C62.6043 18.0494 64.3642 17.2386 64.9748 16.8861V24.9589L65.0826 24.9942C65.1185 24.9942 65.6573 25.1352 66.2679 25.1352C66.8425 25.1352 67.4172 24.9942 67.4531 24.9942L67.5609 24.9589V6.76855L67.4531 6.7333C67.3813 6.7333 66.8066 6.62754 66.2319 6.62754Z"/>
<path d="M75.6786 11.7041C72.0869 11.7041 70.5424 12.9379 70.5424 15.7582V16.1812L70.6502 16.2164C70.6861 16.2164 71.189 16.3575 71.7277 16.3575C72.2665 16.3575 72.7693 16.2164 72.8052 16.2164L72.913 16.1812V15.7582C72.913 14.066 73.6673 13.4315 75.6786 13.4315C77.7259 13.4315 78.5161 14.1013 78.5161 15.8287V17.133L75.1758 17.4855C71.7996 17.8381 70.291 19.0014 70.291 21.1871V21.5748C70.291 24.0425 71.5481 25.2411 74.0983 25.2411C76.4688 25.2411 77.9414 24.5008 78.5161 24.1483V25.0296L78.6239 25.0649C78.6598 25.0649 79.1626 25.2059 79.7373 25.2059C80.312 25.2059 80.8507 25.0649 80.8507 25.0649L80.9585 25.0296V15.8639C80.9944 13.0084 79.3063 11.7041 75.6786 11.7041ZM74.8884 23.4785C73.3799 23.4785 72.8052 22.9497 72.8052 21.5396V21.1518C72.8052 20.2352 73.1285 19.3892 75.6068 19.1424L78.5161 18.7899V22.2799C78.3006 22.5267 77.2231 23.4785 74.8884 23.4785Z"/>
<path d="M89.3628 9.97654C91.9129 9.97654 92.9904 9.13048 92.9904 7.12107V6.76855L92.8827 6.7333C92.8827 6.7333 92.4876 6.59229 92.0925 6.59229C91.6615 6.59229 91.3023 6.7333 91.2664 6.7333L91.1587 6.76855V7.15633C91.1587 8.0729 90.8713 8.60169 89.3628 8.60169C87.8543 8.60169 87.531 8.0729 87.531 7.15633V6.76855L87.4232 6.7333C87.4232 6.7333 87.0641 6.59229 86.6331 6.59229C86.2021 6.59229 85.8429 6.7333 85.807 6.7333L85.6992 6.76855V7.12107C85.7351 9.13048 86.8127 9.97654 89.3628 9.97654Z"/>
<path d="M93.7443 11.7744C93.2414 11.7744 92.7386 11.9154 92.7386 11.9154H92.6667L86.3094 21.1164V11.9507L86.2016 11.9154C86.1657 11.9154 85.6628 11.7744 85.0882 11.7744C84.5135 11.7744 83.9747 11.9154 83.9388 11.9154L83.8311 11.9507V24.9942L83.9388 25.0294C83.9747 25.0294 84.4417 25.1704 84.9804 25.1704C85.4833 25.1704 85.9861 25.0294 85.9861 25.0294H86.0579L92.4153 15.8285V25.0294L92.5231 25.0647C92.559 25.0647 93.0618 25.2057 93.6365 25.2057C94.2112 25.2057 94.7499 25.0647 94.7499 25.0647L94.8577 25.0294V11.9859L94.7499 11.9507C94.7499 11.9154 94.283 11.7744 93.7443 11.7744Z"/>
<path d="M107.968 12.1271L108.112 11.9509L107.896 11.8804C107.86 11.8804 107.358 11.7394 106.747 11.7394C106.172 11.7394 105.562 11.8804 105.562 11.8804H105.49L101.647 17.133L100.246 17.5208V11.8804L100.138 11.8451C100.102 11.8451 99.5994 11.7041 99.0247 11.7041C98.4141 11.7041 97.9112 11.8451 97.8753 11.8451L97.7676 11.8804V24.9238L97.8753 24.9591C97.9112 24.9591 98.4141 25.1001 99.0247 25.1001C99.5634 25.1001 100.138 24.9591 100.138 24.9591L100.246 24.9238V19.3892L101.647 19.0014L105.741 24.9591L105.777 24.9944H105.849C105.885 24.9944 106.495 25.1354 107.034 25.1354C107.645 25.1354 108.184 24.9944 108.22 24.9944L108.435 24.9591L103.766 18.0496L107.968 12.1271Z"/>
<path d="M114.685 11.7041C111.093 11.7041 109.549 12.9379 109.549 15.7582V16.1812L109.656 16.2164C109.692 16.2164 110.195 16.3575 110.734 16.3575C111.273 16.3575 111.775 16.2164 111.811 16.2164L111.919 16.1812V15.7582C111.919 14.066 112.673 13.4315 114.685 13.4315C116.732 13.4315 117.522 14.1013 117.522 15.8287V17.133L114.218 17.4855C110.842 17.8381 109.333 19.0014 109.333 21.1871V21.5748C109.333 24.0425 110.59 25.2411 113.14 25.2411C115.511 25.2411 116.983 24.5008 117.558 24.1483V25.0296L117.666 25.0649C117.702 25.0649 118.205 25.2059 118.779 25.2059C119.354 25.2059 119.893 25.0649 119.893 25.0649L120 25.0296V15.8639C120 13.0084 118.312 11.7041 114.685 11.7041ZM113.895 23.4785C112.386 23.4785 111.811 22.9497 111.811 21.5396V21.1518C111.811 20.2352 112.135 19.3892 114.613 19.1424L117.522 18.7899V22.2799C117.307 22.5267 116.229 23.4785 113.895 23.4785Z"/>
<path d="M22.1611 8.00223C24.388 9.48284 26.5431 11.1045 28.6263 12.7966C30.6736 10.8577 33.0082 8.9188 35.7379 7.19142C34.0857 5.74606 31.8948 4.86475 29.5242 4.86475H16.9531C18.7131 5.85182 20.473 6.9094 22.1611 8.00223Z"/>
<path d="M45.7231 4.8999C38.8629 6.62728 33.8345 10.2936 28.7342 15.2642C28.5187 15.0527 28.2673 14.8764 28.0518 14.7001C29.4885 15.934 30.8174 17.2383 32.0745 18.5427C34.9838 14.3476 39.5812 9.13022 46.2619 5.07617C46.0823 4.97041 45.9386 4.8999 45.7231 4.8999Z"/>
<path d="M17.7432 36.4866H24.6752C23.6695 33.0318 22.3406 29.7181 20.7602 26.5806C19.3235 29.6828 18.2819 33.0318 17.7432 36.4866Z"/>
<path d="M32.0383 18.5429C30.7812 17.2385 29.4523 15.9342 28.0156 14.7004C25.6809 12.7615 23.3822 11.0341 21.0835 9.55347C18.5334 7.86134 16.091 6.45123 13.7564 5.2879C13.6486 5.25264 13.5409 5.18214 13.469 5.14689C13.1458 4.97062 12.8225 4.82961 12.4993 4.65335C9.12302 2.99647 5.45944 1.55112 1.6522 0.317274C1.22119 0.211516 0.8261 0.105758 0.466926 0C0.251422 0.0705053 0.107752 0.176263 0 0.387779C3.84316 2.53819 13.6486 8.31962 19.5031 14.5946C20.0778 15.2291 20.6166 15.8284 21.1194 16.3925C24.8189 20.6228 26.7225 23.6545 27.4768 25.0294C27.5486 25.0999 27.6923 25.1351 27.836 25.1351C27.9796 25.1351 28.1233 25.0999 28.1952 25.0294H28.267C28.8057 23.8308 30.0269 21.4336 32.0383 18.5429Z"/>
<path d="M33.5827 19.6003C33.5109 19.706 33.439 19.8118 33.3672 19.9175C35.4145 22.2442 37.2822 24.6766 38.9344 27.2853V27.2501V14.1714C38.9344 13.8541 38.8985 13.5721 38.8625 13.29C36.5997 15.511 34.8757 17.7671 33.5827 19.6003Z"/>
<path d="M33.3675 19.8823C31.7153 22.2795 30.6378 24.3242 30.099 25.4522C29.3448 26.7918 28.6264 27.2854 27.8722 27.2854C26.6869 27.2854 25.4657 25.2407 25.4657 25.2407V25.276C24.9988 24.4652 24.2445 23.3371 23.2029 21.8917C22.2691 23.3723 21.443 24.9235 20.7246 26.5451C22.3409 29.6826 23.6339 33.0316 24.6396 36.4511H29.4885C34.6965 36.4511 38.8988 32.3265 38.8988 27.2149C37.2825 24.6767 35.4148 22.209 33.3675 19.8823Z"/>
<path d="M19.6821 17.5912C19.1792 17.0271 18.6764 16.4278 18.1017 15.8285C15.5516 13.1141 12.2472 10.4701 9.01459 8.17871C8.58358 8.67225 8.18849 9.20104 7.86523 9.76508C13.1451 14.5242 17.4911 20.2351 20.7237 26.5806C21.442 24.959 22.304 23.4431 23.2379 21.9272C22.304 20.6934 21.1547 19.248 19.6821 17.5912Z"/>
</symbol></svg>