<svg width="20" height="20" viewBox="0 0 20 20" fill="none" xmlns="http://www.w3.org/2000/svg">
<path d="M10.4211 2C5.77263 2 2 5.77263 2 10.4211C2 15.0695 5.77263 18.8421 10.4211 18.8421C15.0695 18.8421 18.8421 15.0695 18.8421 10.4211C18.8421 5.77263 15.0695 2 10.4211 2ZM11.2632 16.3158H9.57895V14.6316H11.2632V16.3158ZM13.0063 9.78947L12.2484 10.5642C11.6421 11.1789 11.2632 11.6842 11.2632 12.9474H9.57895V12.5263C9.57895 11.6 9.95789 10.7579 10.5642 10.1432L11.6084 9.08211C11.92 8.77895 12.1053 8.35789 12.1053 7.89474C12.1053 6.96842 11.3474 6.21053 10.4211 6.21053C9.49474 6.21053 8.73684 6.96842 8.73684 7.89474H7.05263C7.05263 6.03368 8.56 4.52632 10.4211 4.52632C12.2821 4.52632 13.7895 6.03368 13.7895 7.89474C13.7895 8.63579 13.4863 9.30947 13.0063 9.78947Z"/>
</svg>
